<svg xmlns="http://www.w3.org/2000/svg" xmlns:svg="http://www.w3.org/2000/svg" version="1.1" viewBox="0 0 600 400" xml:space="preserve">
  <style>
    .s0{opacity:0.4;}.s1{fill:#c3ecfe;}.s2{fill:none;stroke-width:1.1;stroke:#c3ecfe;}.s3{fill:#599fd2;}.s4{fill:#88d2ff;}.s5{fill:#9bdfff;}.s6{fill:#c0edff;}.s7{fill:none;stroke-width:1.1;stroke:#a1dbff;}.s8{fill:#ed7f12;}.s9{fill:none;stroke-width:1.1;stroke:#ccf3ff;}.s10{fill:#b03d44;}.s11{fill:#1c3661;}.s12{fill:#fff;}.s13{opacity:0.3;}.s14{fill:#0964af;}.s15{stroke:#ed7f12;}.s16{opacity:0.1;}.s17{fill:none;stroke-linecap:round;stroke-linejoin:round;stroke-width:2.1;stroke:#0964af;}.s18{fill:#ed7f12;opacity:0.3;}.s19{fill:#5ab5e2;}.s20{fill:#bdeeff;}.s21{fill:#ffbe9d;}.s22{fill:#170d54;}.s23{fill:#f2a181;}.s24{fill:#ffccb0;}.s25{fill:#57c6f2;}.s26{fill:#eaeaea;}.s27{fill:#fe7d90;}.s28{fill:#e5f8ff;}.s29{fill:none;stroke-linecap:round;stroke-linejoin:round;stroke-width:0.5;stroke:#a1d2f0;}.s30{fill:#000;}.s31{fill-opacity:0.8;fill:#ed7f12;}.s32{stroke:#1c3661;}.s33{fill:none;stroke-linecap:round;stroke-linejoin:round;stroke-width:2.1;stroke:#ed7f12;}.s34{fill:none;stroke-width:1.1;stroke:#1c3661;}.s35{fill:#c2ebff;}.s36{fill:#fff;stroke:#fff;}.s37{fill:#fff;stroke-width:2.7;stroke:#fff;}
  </style>
  <defs>
    <clipPath clipPathUnits="userSpaceOnUse">
      <path d="M0 500 750 500 750 0 0 0 0 500Z"/>
    </clipPath>
    <clipPath clipPathUnits="userSpaceOnUse">
      <path d="m40 480 670 0 0-454-670 0 0 454z"/>
    </clipPath>
    <clipPath clipPathUnits="userSpaceOnUse">
      <path d="m40 480 670 0 0-454-670 0 0 454z"/>
    </clipPath>
    <mask width="1" height="1" x="0" y="0" maskUnits="userSpaceOnUse">
      <g clip-path="url(#clipPath30)">
        <g transform="matrix(670,0,0,454,40,26)">
          <image width="1" height="1" preserveAspectRatio="none" transform="matrix(1,0,0,-1,0,1)"/>
        </g>
      </g>
    </mask>
    <mask width="1" height="1" x="0" y="0" maskUnits="userSpaceOnUse">
      <image width="1" height="1" preserveAspectRatio="none"/>
    </mask>
    <clipPath clipPathUnits="userSpaceOnUse">
      <path d="M0 500 750 500 750 0 0 0 0 500Z"/>
    </clipPath>
    <clipPath clipPathUnits="userSpaceOnUse">
      <path d="m249.4 369.6 401.2 0 0-228.1-401.2 0 0 228.1z"/>
    </clipPath>
    <clipPath clipPathUnits="userSpaceOnUse">
      <path d="m602.3 253.9 7.2 0 0-3.3-7.2 0 0 3.3z"/>
    </clipPath>
    <clipPath clipPathUnits="userSpaceOnUse">
      <path d="m481.6 341.1 15.1 0 0-17-15.1 0 0 17z"/>
    </clipPath>
    <clipPath clipPathUnits="userSpaceOnUse">
      <path d="m441.8 325.4 91.8 0 0-12.7-91.8 0 0 12.7z"/>
    </clipPath>
    <clipPath clipPathUnits="userSpaceOnUse">
      <path d="m437.8 301 29.9 0 0-29.9-29.9 0 0 29.9z"/>
    </clipPath>
    <clipPath clipPathUnits="userSpaceOnUse">
      <path d="m474.5 292.5 62.5 0 0-20.2-62.5 0 0 20.2z"/>
    </clipPath>
    <clipPath clipPathUnits="userSpaceOnUse">
      <path d="m437.8 258.7 29.9 0 0-29.9-29.9 0 0 29.9z"/>
    </clipPath>
    <clipPath clipPathUnits="userSpaceOnUse">
      <path d="m496 257.5 4.7 0 0-4.5-4.7 0 0 4.5z"/>
    </clipPath>
    <clipPath clipPathUnits="userSpaceOnUse">
      <path d="m503.1 257.5 4.7 0 0-4.5-4.7 0 0 4.5z"/>
    </clipPath>
    <clipPath clipPathUnits="userSpaceOnUse">
      <path d="m474.5 250.2 62.5 0 0-20.2-62.5 0 0 20.2z"/>
    </clipPath>
    <clipPath clipPathUnits="userSpaceOnUse">
      <path d="m437.8 216.4 29.9 0 0-29.9-29.9 0 0 29.9z"/>
    </clipPath>
    <clipPath clipPathUnits="userSpaceOnUse">
      <path d="m503.1 215.2 4.7 0 0-4.5-4.7 0 0 4.5z"/>
    </clipPath>
    <clipPath clipPathUnits="userSpaceOnUse">
      <path d="m474.5 207.9 62.5 0 0-20.2-62.5 0 0 20.2z"/>
    </clipPath>
    <clipPath clipPathUnits="userSpaceOnUse">
      <path d="m437.8 174.1 29.9 0 0-29.9-29.9 0 0 29.9z"/>
    </clipPath>
    <clipPath clipPathUnits="userSpaceOnUse">
      <path d="m474.5 165.6 62.5 0 0-20.2-62.5 0 0 20.2z"/>
    </clipPath>
    <clipPath clipPathUnits="userSpaceOnUse">
      <path d="m488.6 248.4 70.4 0 0-81.5-70.4 0 0 81.5z"/>
    </clipPath>
    <clipPath clipPathUnits="userSpaceOnUse">
      <path d="m327.2 120 42.2 0 0-3.3-42.2 0 0 3.3z"/>
    </clipPath>
    <clipPath clipPathUnits="userSpaceOnUse">
      <path d="m329.8 223.7 6 0 0-26.5-6 0 0 26.5z"/>
    </clipPath>
    <clipPath clipPathUnits="userSpaceOnUse">
      <path d="m354.5 223.6 22.6 0 0-27.5-22.6 0 0 27.5z"/>
    </clipPath>
    <clipPath clipPathUnits="userSpaceOnUse">
      <path d="m380.8 108.1 43.9 0 0-4-43.9 0 0 4z"/>
    </clipPath>
    <clipPath clipPathUnits="userSpaceOnUse">
      <path d="m416.2 226.8 14.5 0 0-28-14.5 0 0 28z"/>
    </clipPath>
    <clipPath clipPathUnits="userSpaceOnUse">
      <path d="m543.1 103.1 80.5 0 0-5.5-80.5 0 0 5.5z"/>
    </clipPath>
    <clipPath clipPathUnits="userSpaceOnUse">
      <path d="m566.9 224.8 26 0 0-41.6-26 0 0 41.6z"/>
    </clipPath>
    <clipPath clipPathUnits="userSpaceOnUse">
      <path d="m552.1 215.8 14.2 0 0-21.8-14.2 0 0 21.8z"/>
    </clipPath>
    <clipPath clipPathUnits="userSpaceOnUse">
      <path d="m381.7 293.3 7.1 0 0-1.6-7.1 0 0 1.6z"/>
    </clipPath>
    <clipPath clipPathUnits="userSpaceOnUse">
      <path d="m376.7 295.8 12.2 0 0-1.6-12.2 0 0 1.6z"/>
    </clipPath>
    <clipPath clipPathUnits="userSpaceOnUse">
      <path d="m371.1 286.5 34.9 0 0-2-34.9 0 0 2z"/>
    </clipPath>
    <clipPath clipPathUnits="userSpaceOnUse">
      <path d="m371.1 283.5 34.9 0 0-2-34.9 0 0 2z"/>
    </clipPath>
    <clipPath clipPathUnits="userSpaceOnUse">
      <path d="m376.7 298.2 12.2 0 0-1.6-12.2 0 0 1.6z"/>
    </clipPath>
    <clipPath clipPathUnits="userSpaceOnUse">
      <path d="m384.4 300.6 4.5 0 0-1.6-4.5 0 0 1.6z"/>
    </clipPath>
    <clipPath clipPathUnits="userSpaceOnUse">
      <path d="m391.7 302.7 14.3 0 0-14.3-14.3 0 0 14.3z"/>
    </clipPath>
    <clipPath clipPathUnits="userSpaceOnUse">
      <path d="m394.7 300.1 8.4 0 0-11.8-8.4 0 0 11.8z"/>
    </clipPath>
    <clipPath clipPathUnits="userSpaceOnUse">
      <path d="M0 500 750 500 750 0 0 0 0 500Z"/>
    </clipPath>
    <clipPath clipPathUnits="userSpaceOnUse">
      <path d="M0 500 750 500 750 0 0 0 0 500Z"/>
    </clipPath>
    <clipPath clipPathUnits="userSpaceOnUse">
      <path d="m119.8 138.5 18.6 0 0-1.8-18.6 0 0 1.8z"/>
    </clipPath>
    <clipPath clipPathUnits="userSpaceOnUse">
      <path d="m140.3 138.5 18.6 0 0-1.8-18.6 0 0 1.8z"/>
    </clipPath>
    <clipPath clipPathUnits="userSpaceOnUse">
      <path d="M0 500 750 500 750 0 0 0 0 500Z"/>
    </clipPath>
  </defs>
  <g transform="matrix(1.25,0,0,-1.25,0,400)">
    <g transform="translate(-216.42467,-81.97265)">
      <g clip-path="url(#clipPath70)">
        <g clip-path="url(#clipPath78)" opacity="0.4">
          <g transform="translate(637.5967,192.7422)">
            <path fill="#c3ecfe" d="m0 0c-5.6 20.1 12.2 20.9 12.6 46.9 0.2 10.6-5.7 21.4-19.6 26.4-6.9 2.4-13.7 4.1-19.8 8-13.9 8.8-13.7 25.6-17.5 40-8.4 31.5-40.5 56.5-73 55.6-23.5-0.6-44.7-1.3-66-21.2-14.6-13.6-24.1-30.4-37.7-44.4-14.4-14.9-31.9-22-51.6-26.8-18.6-4.5-38.9-9.9-53.1-23.4-13.4-12.7-11.4-26.1-5.7-41.7 6.3-17.2-7.4-29-21.7-35.7-12.1-5.7-28.1-5.2-33.7-18.7-6.1-14.7 12-14.9 28.7-14.9 16.8 0 233.7 1.3 294.4-0.5 16.3-0.5 68.4-4.9 75.8 15.4C16.9-21.3 3.9-14.1 0 0"/>
          </g>
        </g>
        <g transform="translate(656.2109,199.0146)">
          <path d="M0 0C-12.1-28.2-35.5-51.2-63.5-63.7" class="s2"/>
        </g>
        <g transform="translate(652.6533,191.5107)">
          <path fill="#c3ecfe" d="m0 0c4.2 3.5 7.1 8.6 8 14.1 0.2 1.3 0.3 2.9-0.6 3.9-0.2 0.3-0.6 0.5-0.9 0.5C5.8 18.5 5.3 18.1 4.9 17.6 2.8 15.3 2.1 12 1.7 8.8 1.3 5.7 0.7 3.4 0 0"/>
        </g>
        <g transform="translate(646.8984,181.9023)">
          <path fill="#c3ecfe" d="m0 0c2.5 4.9 3.1 10.7 1.8 16.1-0.3 1.3-0.9 2.7-2.1 3.3-0.3 0.2-0.7 0.2-1.1 0.1C-2 19.3-2.3 18.7-2.5 18.1-3.5 15.1-2.9 11.8-1.9 8.8-1 5.8-0.7 3.4 0 0"/>
        </g>
        <g transform="translate(638.4297,170.082)">
          <path fill="#c3ecfe" d="M0 0C3.1 4.6 4.4 10.3 3.7 15.7 3.5 17.1 3.2 18.5 2 19.3 1.7 19.5 1.3 19.6 1 19.5 0.4 19.4 0 18.8-0.3 18.3-1.6 15.4-1.4 12.1-0.9 9-0.3 5.8-0.3 3.4 0 0"/>
        </g>
        <g transform="translate(628.6973,159.7256)">
          <path fill="#c3ecfe" d="M0 0C3.1 4.6 4.4 10.3 3.7 15.7 3.5 17.1 3.2 18.5 2 19.3 1.7 19.5 1.3 19.6 1 19.5 0.4 19.4 0 18.8-0.3 18.3-1.6 15.4-1.4 12.1-0.9 9-0.3 5.8-0.3 3.4 0 0"/>
        </g>
        <g transform="translate(614.1191,147.7725)">
          <path fill="#c3ecfe" d="M0 0C3.5 4.2 5.5 9.8 5.3 15.3 5.3 16.6 5.1 18.1 4 18.9 3.7 19.2 3.3 19.3 3 19.3 2.4 19.3 1.9 18.7 1.6 18.2 0 15.5-0.1 12.2 0.1 9 0.3 5.9 0 3.5 0 0"/>
        </g>
        <g transform="translate(602.6982,140.1377)">
          <path fill="#c3ecfe" d="M0 0C3.5 3.8 5.7 9 6.2 14.5 6.3 15.8 6.3 17.4 5.4 18.3 5.2 18.6 4.9 18.8 4.6 18.8 4.1 18.8 3.7 18.4 3.3 17.9 1.6 15.4 1.2 12.1 1 8.9 0.9 5.8 0.4 3.4 0 0"/>
        </g>
        <g transform="translate(644.0156,177.6709)">
          <path fill="#c3ecfe" d="m0 0c5.6-0.9 11.6 0.2 16.6 3.2 1.2 0.7 2.5 1.7 2.8 3.1 0.1 0.4 0.1 0.8-0.1 1.1-0.3 0.5-1 0.6-1.6 0.6C14.3 8 11.2 6.4 8.4 4.6 5.5 2.8 3.2 1.8 0 0"/>
        </g>
        <g transform="translate(637.1729,168.7275)">
          <path fill="#c3ecfe" d="m0 0c5.2-2.2 11.3-2.5 16.9-0.9 1.4 0.4 2.8 1.1 3.4 2.3 0.2 0.3 0.2 0.7 0.1 1.1C20.2 3.1 19.6 3.4 19 3.5 15.8 4.4 12.4 3.5 9.2 2.5 6 1.4 3.5 0.9 0 0"/>
        </g>
        <g transform="translate(626.9502,158.2969)">
          <path fill="#c3ecfe" d="m0 0c4.7-3.2 10.6-4.8 16.4-4.2 1.4 0.1 3 0.5 3.8 1.6 0.2 0.3 0.4 0.7 0.3 1-0.1 0.6-0.7 1-1.2 1.3C16.4 1.1 12.8 1 9.5 0.6 6.2 0.1 3.6 0.2 0 0"/>
        </g>
        <g transform="translate(612.6504,146.251)">
          <path fill="#c3ecfe" d="m0 0c5.3-2.1 11.4-2.3 16.9-0.5 1.4 0.4 2.8 1.1 3.4 2.4 0.2 0.4 0.2 0.8 0.1 1.1C20.2 3.6 19.5 3.8 18.9 4 15.7 4.7 12.3 3.8 9.2 2.7 6 1.5 3.5 1 0 0"/>
        </g>
        <g transform="translate(601.0889,139.3477)">
          <path fill="#c3ecfe" d="m0 0c3.7-4.2 9.1-7.2 14.9-8.1 1.4-0.2 3-0.3 4.1 0.6 0.3 0.2 0.5 0.6 0.6 0.9 0.1 0.6-0.4 1.1-0.9 1.5-2.5 2.1-6 2.9-9.3 3.2C6-1.4 3.6-0.7 0 0"/>
        </g>
        <g transform="translate(587.6826,258.3506)">
          <path fill="#599fd2" d="M0 0C-0.1 0-0.3 0.1-0.3 0.3L-0.4 1.8C-0.4 2-0.3 2.1-0.1 2.1 0.1 2.1 0.2 2 0.2 1.8L0.3 0.3C0.3 0.2 0.2 0 0 0 0 0 0 0 0 0"/>
        </g>
        <g transform="translate(594.458,189.7988)">
          <path fill="#c3ecfe" d="m0 0-4-0.3-4.4 64.3 2 0.1 2 0.1L0 0Z"/>
        </g>
        <g transform="translate(588.0596,259.2744)">
          <path fill="#c3ecfe" d="M0 0-0.8-0.1-2-5.5 2-5.2 0 0Z"/>
        </g>
        <g transform="translate(369.4541,243.2783)">
          <path d="M0 0C7.1-38.7 34.1-73.3 70-89.5" class="s2"/>
        </g>
        <g transform="translate(371.249,235.1699)">
          <path fill="#c3ecfe" d="m0 0c-3.3 4.4-5 10-4.7 15.5 0.1 1.3 0.4 2.8 1.5 3.6 0.3 0.2 0.7 0.4 1 0.3 0.6-0.1 1-0.6 1.3-1.1C0.7 15.5 0.7 12.2 0.3 9 0 5.9 0.1 3.5 0 0"/>
        </g>
        <g transform="translate(374.7168,224.5195)">
          <path fill="#c3ecfe" d="m0 0c-1.3 5.3-0.7 11.2 1.9 16.1 0.6 1.2 1.5 2.5 2.8 2.7 0.4 0.1 0.8 0.1 1.1-0.1 0.5-0.3 0.7-1 0.7-1.6C6.8 14 5.4 10.9 3.9 8.1 2.3 5.4 1.5 3.1 0 0"/>
        </g>
        <g transform="translate(380.3359,211.1094)">
          <path fill="#c3ecfe" d="m0 0c-2 5.1-2 11-0.1 16.2 0.5 1.3 1.2 2.6 2.4 3.1 0.4 0.1 0.7 0.2 1.1 0C4 19 4.2 18.4 4.3 17.8 5 14.7 4.1 11.5 2.8 8.6 1.6 5.6 1.1 3.3 0 0"/>
        </g>
        <g transform="translate(387.5146,198.8428)">
          <path fill="#c3ecfe" d="m0 0c-2 5.1-2 11-0.1 16.2 0.5 1.3 1.2 2.6 2.4 3.1 0.4 0.1 0.7 0.2 1.1 0C4 19 4.2 18.4 4.3 17.8 5 14.7 4.1 11.5 2.8 8.6 1.6 5.6 1.1 3.3 0 0"/>
        </g>
        <g transform="translate(399.0605,183.9404)">
          <path fill="#c3ecfe" d="m0 0c-2.5 4.9-3.1 10.7-1.8 16.1 0.3 1.3 0.9 2.7 2.1 3.3 0.3 0.2 0.7 0.2 1.1 0.1C2 19.3 2.3 18.7 2.5 18.1 3.5 15.1 2.8 11.8 1.9 8.8 1 5.8 0.7 3.4 0 0"/>
        </g>
        <g transform="translate(408.4912,173.9512)">
          <path fill="#c3ecfe" d="m0 0c-2.5 4.4-3.6 10.1-2.8 15.5 0.2 1.3 0.6 2.8 1.6 3.6 0.3 0.2 0.6 0.3 0.9 0.3 0.5-0.1 0.8-0.6 1-1.2C1.8 15.4 1.5 12.1 1 8.9 0.4 5.8 0.4 3.4 0 0"/>
        </g>
        <g transform="translate(376.584,219.752)">
          <path fill="#c3ecfe" d="m0 0c-5.6 0.3-11.3 2.8-15.5 6.8-1 1-2.1 2.2-2 3.6 0 0.4 0.1 0.8 0.4 1 0.4 0.4 1.1 0.4 1.7 0.2 3.2-0.7 5.9-3 8.3-5.4C-4.8 3.9-2.7 2.4 0 0"/>
        </g>
        <g transform="translate(381.2598,209.5078)">
          <path fill="#c3ecfe" d="m0 0c-5.6-1-11.6 0-16.7 2.9-1.2 0.7-2.5 1.7-2.8 3-0.1 0.4-0.1 0.8 0.1 1.1 0.3 0.5 1 0.6 1.6 0.6 3.3 0.1 6.5-1.5 9.3-3.2C-5.6 2.7-3.2 1.7 0 0"/>
        </g>
        <g transform="translate(388.8994,197.0605)">
          <path fill="#c3ecfe" d="m0 0c-5.3-2.1-11.4-2.3-16.9-0.5-1.4 0.4-2.8 1.1-3.4 2.4-0.2 0.4-0.2 0.8-0.1 1.1 0.2 0.6 0.9 0.8 1.5 1 3.2 0.8 6.6-0.1 9.8-1.3C-6 1.5-3.5 1 0 0"/>
        </g>
        <g transform="translate(400.1533,182.1299)">
          <path fill="#c3ecfe" d="m0 0c-5.6-0.9-11.6 0.3-16.6 3.3-1.2 0.7-2.5 1.7-2.7 3.1-0.1 0.4 0 0.8 0.2 1.1 0.3 0.5 1 0.6 1.6 0.6 3.3 0 6.4-1.6 9.2-3.4C-5.5 2.8-3.2 1.8 0 0"/>
        </g>
        <g transform="translate(409.8848,172.8223)">
          <path fill="#c3ecfe" d="m0 0c-4.6-3.3-10.5-5-16.3-4.5-1.4 0.1-3 0.4-3.8 1.5-0.2 0.3-0.4 0.7-0.3 1 0.1 0.6 0.6 1 1.2 1.3 2.9 1.5 6.5 1.5 9.8 1.1C-6.2 0-3.7 0.1 0 0"/>
        </g>
        <g transform="translate(299.5923,189.1807)">
          <path d="M0 0C39.3 1.8 79.1-16.8 102.9-48.1" class="s2"/>
        </g>
        <g transform="translate(307.896,189.2529)">
          <path fill="#c3ecfe" d="m0 0c-5 2.3-10.9 2.7-16.1 1.1-1.3-0.4-2.7-1-3.2-2.3-0.1-0.3-0.2-0.7-0.1-1.1 0.2-0.6 0.8-0.8 1.4-1 3-0.9 6.3-0.1 9.3 1C-5.7-1.3-3.3-0.9 0 0"/>
        </g>
        <g transform="translate(319.0532,188.2666)">
          <path fill="#c3ecfe" d="m0 0c-5.5 0.1-11-1.9-15.2-5.4-1-0.9-2.1-2-2-3.3 0-0.4 0.1-0.8 0.4-1 0.4-0.4 1.1-0.4 1.7-0.4 3.1 0.4 5.8 2.4 8.2 4.6C-4.7-3.4-2.7-2.1 0 0"/>
        </g>
        <g transform="translate(333.3833,185.8027)">
          <path fill="#c3ecfe" d="m0 0c-5.5 0.8-11.2-0.5-15.8-3.5-1.1-0.7-2.3-1.7-2.4-3.1 0-0.4 0-0.8 0.2-1.1 0.4-0.5 1-0.6 1.6-0.6 3.2 0 6.1 1.7 8.7 3.5C-5.1-2.8-3-1.8 0 0"/>
        </g>
        <g transform="translate(346.9482,181.5635)">
          <path fill="#c3ecfe" d="m0 0c-5.5 0.8-11.2-0.5-15.8-3.5-1.1-0.7-2.3-1.7-2.4-3.1 0-0.4 0-0.8 0.2-1.1 0.4-0.5 1-0.6 1.6-0.6 3.2 0 6.1 1.7 8.7 3.5C-5.1-2.8-3-1.8 0 0"/>
        </g>
        <g transform="translate(364.0635,173.6602)">
          <path fill="#c3ecfe" d="m0 0c-5.3 1.3-11.2 0.7-16.1-1.9-1.2-0.6-2.4-1.5-2.7-2.8-0.1-0.4-0.1-0.8 0.1-1.1 0.3-0.5 1-0.7 1.6-0.7 3.2-0.3 6.2 1 9 2.6C-5.4-2.3-3.1-1.5 0 0"/>
        </g>
        <g transform="translate(375.916,166.7139)">
          <path fill="#c3ecfe" d="m0 0c-4.9 1.5-10.6 1.2-15.7-0.8-1.3-0.5-2.6-1.2-3.1-2.3-0.1-0.3-0.2-0.7-0.1-1 0.2-0.5 0.8-0.7 1.4-0.7 3-0.4 6.2 0.6 9.1 1.8C-5.6-1.7-3.3-1.1 0 0"/>
        </g>
        <g transform="translate(324.1182,187.5176)">
          <path fill="#c3ecfe" d="m0 0c-1.6 5.4-5.3 10.3-10.1 13.6-1.2 0.8-2.6 1.5-4 1.2-0.4-0.1-0.7-0.3-0.9-0.6-0.3-0.5-0.1-1.2 0.2-1.7 1.4-3 4.2-5.1 7.1-6.8C-4.9 3.8-3 2.1 0 0"/>
        </g>
        <g transform="translate(335.1514,185.2617)">
          <path fill="#c3ecfe" d="m0 0c-0.3 5.7-2.7 11.3-6.6 15.6-1 1.1-2.2 2.1-3.6 2.1-0.4 0-0.8-0.1-1-0.4-0.4-0.4-0.4-1.1-0.3-1.7 0.6-3.2 2.9-6 5.2-8.3C-3.9 4.8-2.4 2.8 0 0"/>
        </g>
        <g transform="translate(348.9961,180.6143)">
          <path fill="#c3ecfe" d="m0 0c0.9 5.6-0.3 11.6-3.3 16.6-0.7 1.2-1.7 2.5-3.1 2.7-0.4 0.1-0.8 0-1.1-0.2-0.5-0.3-0.6-1-0.6-1.6 0-3.3 1.6-6.4 3.5-9.2C-2.8 5.5-1.8 3.2 0 0"/>
        </g>
        <g transform="translate(366.0732,173.002)">
          <path fill="#c3ecfe" d="m0 0c-0.4 5.6-2.9 11.2-6.9 15.4-1 1-2.2 2-3.6 2-0.4 0-0.8-0.1-1-0.4-0.4-0.4-0.4-1.1-0.2-1.7 0.7-3.2 3-5.9 5.4-8.2C-4 4.8-2.4 2.7 0 0"/>
        </g>
        <g transform="translate(377.3291,165.6094)">
          <path fill="#c3ecfe" d="m0 0c2.2 5.2 2.5 11.3 0.8 16.9-0.4 1.4-1.1 2.8-2.3 3.4-0.3 0.2-0.7 0.2-1.1 0.1-0.6-0.2-0.8-0.8-1-1.5-0.8-3.2 0-6.6 1.1-9.8C-1.4 6-1 3.5 0 0"/>
        </g>
        <g transform="translate(423.9336,172.5332)">
          <path fill="#c3ecfe" d="m0 0c-5.7 5.3-13.7 8-21.5 7.3-5.3-0.5-11-3.3-12.1-8.5-0.6-2.5-0.4-5.7-2.7-6.7-2.3-0.9-4.5 1.4-6.8 2.2-3.9 1.3-8.3-3.1-7-7 0.6-1.8 2.1-3.3 2-5.2-0.2-2.5-3.3-3.9-5.8-3.5-2.5 0.4-4.7 1.9-7.2 2.5-2.5 0.6-5.6 0-6.5-2.4-0.8-2.1 0.6-5-1.1-6.5-0.7-0.7-1.8-0.8-2.7-0.9-21.3-2-44.8-5.8-42.4-9.6 0.7-1 2.3-0.7 3.5-0.7 45.3 0.7 86.5 1.4 131.9 0"/>
        </g>
        <g transform="translate(429.2148,258.8437)">
          <path d="m0 0c-3.2-9-12.6-19.1-23.4-19.1-12.2 0-15.2 9.9-18.8 13-8.8 7.7-14.2 9.5-25.4 11.4-7.3 1.2-15 11.4-13.1 21.5 3.4 18.4 36.7 27.2 45.1 40.7 6.9 11 6.5 17.5 18.5 25.4" style="fill:none;stroke-dasharray:2.6;stroke-width:1.1;stroke:#a1dbff"/>
        </g>
        <g transform="translate(574.9854,243.7666)">
          <path fill="#88d2ff" d="M0 0 13.4-52.7 10.9-53.4-5.7-1.5"/>
        </g>
        <g transform="translate(556.0488,268.0381)">
          <path fill="#9bdfff" d="m0 0c-4.3-1.1-6.6-6.7-5.2-12.4 1.5-5.8 6.2-9.5 10.5-8.4 4.3 1.1 6.6 6.7 5.2 12.4C9-2.7 4.3 1.1 0 0m6.5-25.5c-6.9-1.7-14.2 3.6-16.3 11.9-2.1 8.3 1.8 16.5 8.6 18.2 6.9 1.8 14.2-3.6 16.3-11.9 2.1-8.3-1.7-16.5-8.6-18.2"/>
        </g>
        <g transform="translate(569.6133,257.2139)">
          <path fill="#c0edff" d="M0 0C0.2-0.9 4.1-16 4.1-16 4.3-16.8 3.8-17.7 3-17.9 2.2-18.1 1.4-17.6 1.2-16.8l-0.5 1.8c0 0-2.1 4.6-8.1 2.7 0 0 7.1 0.9 7.3 0.9C0.2-11.4-0.2 0.9 0 0"/>
        </g>
        <g transform="translate(573.2012,237.0469)">
          <path fill="#9bdfff" d="m0 0c-2.1-0.5-4.2 0.7-4.7 2.8 0 0-0.2 1.3-0.7 2-0.8 1.1-2.3 1.5-5.2 0.8l-0.7 4.1c1.5 0.5 2.6 1.2 3.8 1.1 0.7 0.1 1.2 0.1 1.6 0.2 0 1.2 0 2.9 0 4.1 0 1.3 1.7 2.8 1.7 3.8 0 1.7-1.8 3.5 0.4 3.7L-1.8 22.8 2.8 4.7C3.3 2.6 2.1 0.5 0 0"/>
        </g>
        <g transform="translate(576.9648,244.2441)">
          <path fill="#88d2ff" d="m0 0 0-54.4 2.6 0 3.3 54.4"/>
        </g>
        <g transform="translate(581.2158,261.6807)">
          <path fill="#9bdfff" d="m0 0c0-5.9 3.6-10.8 8.1-10.8 4.5 0 8.1 4.8 8.1 10.8C16.2 5.9 12.5 10.8 8.1 10.8 3.6 10.8 0 5.9 0 0M-4.8 0C-4.8 8.6 1 15.5 8.1 15.5 15.2 15.5 20.9 8.6 20.9 0 20.9-8.5 15.2-15.5 8.1-15.5 1-15.5-4.8-8.6-4.8 0"/>
        </g>
        <g transform="translate(578.8369,258.6035)">
          <path fill="#c0edff" d="m0 0c0-0.9 0-16.5 0-16.5 0-0.8 0.7-1.5 1.5-1.5 0.8 0 1.5 0.7 1.5 1.5l0 1.9c0 0 0.9 5 7.2 4.6 0 0-7.1-0.9-7.3-1C2.7-11.1 0 0.9 0 0"/>
        </g>
        <g transform="translate(580.3584,238.1758)">
          <path fill="#9bdfff" d="m0 0c2.1 0 3.9 1.7 3.9 3.9 0 0-0.1 1.3 0.2 2.1 0.5 1.2 1.9 2 4.9 2l-0.3 4.1C7.1 12.2 5.9 12.6 4.7 12.3 4 12.2 3.5 12.1 3.1 12 2.8 13.2 2.4 14.8 2.1 16.1c-0.3 1.3-2.4 2.3-2.6 3.2-0.4 1.7 0.9 3.8-1.3 3.5L-3.9 22.6-3.9 3.9C-3.9 1.7-2.1 0 0 0"/>
        </g>
        <g transform="translate(507.2832,321.0254)">
          <path d="M0 0C0.1 0.4 0.2 0.9 0.3 1.3" class="s7"/>
        </g>
        <g transform="translate(508.4521,324.835)">
          <path d="M0 0C3.8 9.6 14.5 19.2 30.6 15.5 42.3 12.8 45.4 1.8 51.7-5.3c4.7-5.3 11.3-9.6 13.4-17 5-17.1-1.8-35.7-14-41.5-6.7-3.2-23.5-1.8-32.1 1.2" style="fill:none;stroke-dasharray:2.7;stroke-width:1.1;stroke:#a1dbff"/>
        </g>
        <g transform="translate(526.1904,262.6909)">
          <path d="M0 0C-0.4 0.2-0.8 0.4-1.2 0.5" class="s7"/>
        </g>
        <g transform="translate(599.8682,199.4648)">
          <path fill="#88d2ff" d="M0 0-6.8 1.2 3.7 59.8c0.1 0.6 0.7 1.1 1.4 0.9l4.5-0.8c0.6-0.1 1.1-0.7 0.9-1.4L0 0Z"/>
        </g>
        <g fill="#ed7f12" transform="translate(609.4746,252.6562)">
          <path fill="#ed7f12" d="m0 0-6.8 1.2 1 5.4c0.1 0.6 0.7 1.1 1.4 0.9L0 6.7C0.7 6.6 1.1 6 1 5.4L0 0Z"/>
        </g>
        <g clip-path="url(#clipPath310)" opacity="0.5">
          <g transform="translate(609.1074,250.6021)">
            <path fill="#599fd2" d="M0 0-6.8 1.2-6.5 3.3 0.4 2 0 0Z"/>
          </g>
        </g>
        <g transform="translate(605.2266,185.9717)">
          <path fill="#c3ecfe" d="M0 0-11.2 4.4 12.6 64.8 23.8 60.4 0 0Z"/>
        </g>
        <g transform="translate(624.583,245.8682)">
          <path d="M0 0 3.7-1.4" class="s9"/>
        </g>
        <g transform="translate(623.3457,242.7305)">
          <path d="M0 0 3.7-1.5" class="s9"/>
        </g>
        <g transform="translate(622.1094,239.5918)">
          <path d="M0 0 3.7-1.4" class="s9"/>
        </g>
        <g transform="translate(619.0723,237.1641)">
          <path d="M0 0 5.5-2.2" class="s9"/>
        </g>
        <g transform="translate(619.6357,233.3164)">
          <path d="M0 0 3.7-1.4" class="s9"/>
        </g>
        <g transform="translate(618.3994,230.1787)">
          <path d="M0 0 3.7-1.4" class="s9"/>
        </g>
        <g transform="translate(617.1621,227.041)">
          <path d="M0 0 3.7-1.5" class="s9"/>
        </g>
        <g transform="translate(614.125,224.6123)">
          <path d="M0 0 5.5-2.2" class="s9"/>
        </g>
        <g transform="translate(614.6885,220.7646)">
          <path d="M0 0 3.7-1.4" class="s9"/>
        </g>
        <g transform="translate(613.4521,217.627)">
          <path d="M0 0 3.7-1.4" class="s9"/>
        </g>
        <g transform="translate(612.2148,214.4893)">
          <path d="M0 0 3.7-1.4" class="s9"/>
        </g>
        <g transform="translate(609.1777,212.0605)">
          <path d="M0 0 5.5-2.2" class="s9"/>
        </g>
        <g transform="translate(609.7412,208.2139)">
          <path d="M0 0 3.7-1.5" class="s9"/>
        </g>
        <g transform="translate(608.5049,205.0752)">
          <path d="M0 0 3.7-1.4" class="s9"/>
        </g>
        <g transform="translate(607.2676,201.9375)">
          <path d="M0 0 3.7-1.4" class="s9"/>
        </g>
        <g transform="translate(604.2305,199.5098)">
          <path d="M0 0 5.5-2.2" class="s9"/>
        </g>
        <g transform="translate(604.7939,195.6621)">
          <path d="M0 0 3.7-1.4" class="s9"/>
        </g>
        <g transform="translate(603.5576,192.5244)">
          <path d="M0 0 3.7-1.5" class="s9"/>
        </g>
        <g transform="translate(602.3203,189.3857)">
          <path d="M0 0 3.7-1.4" class="s9"/>
        </g>
        <g transform="translate(613.3877,130.8193)">
          <path fill="#9bdfff" d="m0 0-55.7 0-9.4 84.2c-0.1 1.1 0.7 2 1.8 2l70.8 0c1.1 0 1.9-0.9 1.8-2L0 0Z"/>
        </g>
        <g transform="translate(543.5684,127.1494)">
          <path fill="#ccf3ff" d="m0 0c33.5-0.5 67.1-0.9 100.6-1.4 1.1 0 4.7 1.1-1.4 5-5.2 3.3-21.5 0.3-21.5 0.3 0 0 3.8 1.5 3.8 3.5 0 2-1.5 3.7-3.3 4.5-1.8 0.8-3.8 0.9-5.8 0.8-4-0.2-8-1.1-11.7-2.6 1.6 1 2.1 3.4 1 4.9-1.1 1.5-3.5 1.8-4.9 0.6 2.5 3.4 6.4 18.5-5.5 25.1-15 8.3-26.3 1.5-28.8-3.5-1.2 4.9-6.9 8.7-10.6 9.6-8.5 2.1-14 1.5-21.9-2.2-2.8-1.3-6.6-5.8-8.4-8.2-2.9-3.9-3.4-9-3.5-13.8-0.1-3.6-0.1-7.3 0-10.9"/>
        </g>
        <g transform="translate(563.165,121.7881)">
          <path fill="#e9e8ee" d="m0 0c0-1.7-33.8-3.1-75.4-3.1-41.7 0-75.4 1.4-75.4 3.1 0 1.7 33.8 3.1 75.4 3.1C-33.8 3.1 0 1.7 0 0"/>
        </g>
        <g fill="#ed7f12" transform="translate(489.1582,329.4644)">
          <path fill="#ed7f12" d="m0 0c-2.3 0-4.2 1.9-4.2 4.2 0 2.3 1.9 4.2 4.2 4.2 2.3 0 4.2-1.9 4.2-4.2C4.2 1.9 2.3 0 0 0m0 11.9c-4.2 0-7.6-3.4-7.6-7.6l0-9.7 15.1 0c0 0 0 7.7 0 9.7 0 4.2-3.4 7.6-7.6 7.6"/>
        </g>
        <g clip-path="url(#clipPath422)" opacity="0.4">
          <g transform="translate(483.8994,325.0752)">
            <path fill="#b03d44" d="m0 0 0 9.7c0 2.6 1.1 5 3.2 6.3-3.2-0.9-5.5-3.8-5.5-7.3l0-9.7 15.1 0L12.8 0 0 0Zm9.5 8.6c0 2.3-1.9 4.2-4.2 4.2-0.2 0-0.4 0-0.6-0.1 0.6 0.2 0.7 0.4 1.7 0.4 2.3 0 4.2-1.9 4.2-4.2 0-2.1-1.1-3.3-2.7-3.7 0.9 0.8 1.6 2.1 1.6 3.4"/>
          </g>
        </g>
        <g fill="#1c3661" transform="translate(549.333,121.8232)">
          <path fill="#1c3661" d="m0 0-123.2 0c-5.4 0-9.7 4.4-9.7 9.7l0 182.3c0 5.4 4.4 9.7 9.7 9.7l123.2 0c5.4 0 9.7-4.4 9.7-9.7l0-182.3C9.7 4.4 5.4 0 0 0"/>
        </g>
        <path fill="#c3ecfe" d="m550.8 129.7-126.2 0 0 185.9 126.2 0 0-185.9z"/>
        <path fill="#fff" d="m546 135.4-116.5 0 0 174.6 116.5 0 0-174.6z"/>
        <g transform="translate(533.6221,312.6729)">
          <path fill="#ed7f12" d="m0 0-91.8 0 0 5.9c0 3.9 3.1 7 7 7l77.8 0C-3.1 12.9 0 9.8 0 5.9L0 0Z"/>
          <path d="m604.7 210.9c0.2-6.8 0.2-7.2 1.5-9.3 1.1-1.8 1.7-2.3 3.2-2.7 3.9-1 8.6 1.2 10.3 4.9 0.7 1.6 0.9 3.1 0.9 8.1l0 6.2-8 0-8 0 0.2-7.1zm10.3 1.1c1.2-0.8 2.3-1.9 2.5-2.5 1.4-4.3-1.7-7.8-6.3-7.1-4.3 0.6-6.4 4.5-4.5 8.2 1.5 3 4.9 3.6 8.3 1.4z" style="fill:#ed7f12;opacity:0.6" transform="matrix(0.8,0,0,-0.8,-533.6221,187.3271)"/>
        </g>
        <g clip-path="url(#clipPath450)" opacity="0.4">
          <g transform="translate(445.3672,314.5698)">
            <path fill="#b03d44" d="M0 0 0 5.5C0 7.6 0.9 9.5 2.3 10.8-1 10.1-3.5 7.1-3.5 3.6l0-5.5 91.8 0 0 1.9L0 0Z"/>
          </g>
        </g>
        <g clip-path="url(#clipPath466)" opacity="0.3">
          <g transform="translate(467.7773,286)">
            <path fill="#0964af" d="m0 0c0-8.3-6.7-15-15-15-8.3 0-15 6.7-15 15 0 8.3 6.7 15 15 15C-6.7 15 0 8.3 0 0"/>
          </g>
        </g>
        <g stroke="#ed7f12" transform="translate(470.1924,286)">
          <path d="m0 0c0-9.6-7.8-17.4-17.4-17.4-9.6 0-17.4 7.8-17.4 17.4 0 9.6 7.8 17.4 17.4 17.4C-7.8 17.4 0 9.6 0 0Z" style="fill:none;stroke-width:1.1;stroke:#ed7f12"/>
        </g>
        <g transform="translate(455.752,285.7754)">
          <path fill="#fff" d="m0 0c1.5 1 2.4 2.6 2.4 4.5 0 3-2.4 5.4-5.4 5.4-3 0-5.4-2.4-5.4-5.4 0-1.9 1-3.5 2.4-4.5-3.4-0.8-5.9-3.8-5.9-7.4l0-4.5c2.5-1.8 5.5-2.9 8.8-2.9 3.3 0 6.3 1.1 8.8 2.9l0 4.5C5.9-3.8 3.4-0.8 0 0"/>
        </g>
        <g fill="#ed7f12" transform="translate(477.1025,299.7949)">
          <path fill="#ed7f12" d="M0 0 0.7-1.5 2.3-1.7 1.2-2.9 1.5-4.5 0-3.7-1.5-4.5-1.2-2.9-2.3-1.7-0.7-1.5 0 0Z"/>
        </g>
        <g fill="#ed7f12" transform="translate(484.1846,299.7949)">
          <path fill="#ed7f12" d="M0 0 0.7-1.5 2.3-1.7 1.2-2.9 1.5-4.5 0-3.7-1.5-4.5-1.2-2.9-2.3-1.7-0.7-1.5 0 0Z"/>
        </g>
        <g fill="#ed7f12" transform="translate(491.2676,299.7949)">
          <path fill="#ed7f12" d="M0 0 0.7-1.5 2.3-1.7 1.2-2.9 1.5-4.5 0-3.7-1.5-4.5-1.2-2.9-2.3-1.7-0.7-1.5 0 0Z"/>
        </g>
        <g fill="#ed7f12" transform="translate(498.3506,299.7949)">
          <path fill="#ed7f12" d="M0 0 0.7-1.5 2.3-1.7 1.2-2.9 1.5-4.5 0-3.7-1.5-4.5-1.2-2.9-2.3-1.7-0.7-1.5 0 0Z"/>
        </g>
        <g fill="#ed7f12" transform="translate(505.4326,299.7949)">
          <path fill="#ed7f12" d="M0 0 0.7-1.5 2.3-1.7 1.2-2.9 1.5-4.5 0-3.7-1.5-4.5-1.2-2.9-2.3-1.7-0.7-1.5 0 0Z"/>
        </g>
        <g clip-path="url(#clipPath510)" opacity="0.1">
          <g transform="translate(475.5361,291.4424)">
            <path d="M0 0 15.1 0" class="s17"/>
          </g>
          <g transform="translate(524.4219,285.4111)">
            <path d="M0 0 11.5 0" class="s17"/>
          </g>
          <g transform="translate(475.5361,285.4111)">
            <path d="M0 0 43.9 0" class="s17"/>
          </g>
          <g transform="translate(475.5361,279.3799)">
            <path d="M0 0 60.3 0" class="s17"/>
          </g>
          <g transform="translate(516.6992,273.3486)">
            <path d="M0 0 19.2 0" class="s17"/>
          </g>
          <g transform="translate(475.5361,273.3486)">
            <path d="M0 0 36.4 0" class="s17"/>
          </g>
          <g transform="translate(495.5498,291.4424)">
            <path d="M0 0 40.3 0" class="s17"/>
          </g>
        </g>
        <g clip-path="url(#clipPath550)" opacity="0.3">
          <g transform="translate(467.7773,243.7061)">
            <path fill="#0964af" d="m0 0c0-8.3-6.7-15-15-15-8.3 0-15 6.7-15 15 0 8.3 6.7 15 15 15C-6.7 15 0 8.3 0 0"/>
          </g>
        </g>
        <g transform="translate(455.752,243.4814)">
          <path fill="#fff" d="m0 0c1.5 1 2.4 2.6 2.4 4.5 0 3-2.4 5.4-5.4 5.4-3 0-5.4-2.4-5.4-5.4 0-1.9 1-3.5 2.4-4.5-3.4-0.8-5.9-3.8-5.9-7.4l0-4.5c2.5-1.8 5.5-2.9 8.8-2.9 3.3 0 6.3 1.1 8.8 2.9l0 4.5C5.9-3.8 3.4-0.8 0 0"/>
        </g>
        <g fill="#ed7f12" transform="translate(477.1025,257.5005)">
          <path fill="#ed7f12" d="M0 0 0.7-1.5 2.3-1.7 1.2-2.9 1.5-4.5 0-3.7-1.5-4.5-1.2-2.9-2.3-1.7-0.7-1.5 0 0Z"/>
        </g>
        <g fill="#ed7f12" transform="translate(484.1846,257.5005)">
          <path fill="#ed7f12" d="M0 0 0.7-1.5 2.3-1.7 1.2-2.9 1.5-4.5 0-3.7-1.5-4.5-1.2-2.9-2.3-1.7-0.7-1.5 0 0Z"/>
        </g>
        <g fill="#ed7f12" transform="translate(491.2676,257.5005)">
          <path fill="#ed7f12" d="M0 0 0.7-1.5 2.3-1.7 1.2-2.9 1.5-4.5 0-3.7-1.5-4.5-1.2-2.9-2.3-1.7-0.7-1.5 0 0Z"/>
        </g>
        <g class="s18" clip-path="url(#clipPath582)">
          <g fill="#ed7f12" transform="translate(498.3506,257.5005)">
            <path fill="#ed7f12" d="M0 0 0.7-1.5 2.3-1.7 1.2-2.9 1.5-4.5 0-3.7-1.5-4.5-1.2-2.9-2.3-1.7-0.7-1.5 0 0Z"/>
          </g>
        </g>
        <g class="s18" clip-path="url(#clipPath598)">
          <g fill="#ed7f12" transform="translate(505.4326,257.5005)">
            <path fill="#ed7f12" d="M0 0 0.7-1.5 2.3-1.7 1.2-2.9 1.5-4.5 0-3.7-1.5-4.5-1.2-2.9-2.3-1.7-0.7-1.5 0 0Z"/>
          </g>
        </g>
        <g clip-path="url(#clipPath614)" opacity="0.1">
          <g transform="translate(475.5361,249.1479)">
            <path d="M0 0 26.8 0" class="s17"/>
          </g>
          <g transform="translate(491.4023,243.1162)">
            <path d="M0 0 44.5 0" class="s17"/>
          </g>
          <g transform="translate(475.5361,243.1162)">
            <path d="M0 0 10.9 0" class="s17"/>
          </g>
          <g transform="translate(475.5361,237.085)">
            <path d="M0 0 60.3 0" class="s17"/>
          </g>
          <g transform="translate(523.5215,231.0547)">
            <path d="M0 0 12.4 0" class="s17"/>
          </g>
          <g transform="translate(475.5361,231.0547)">
            <path d="M0 0 43.2 0" class="s17"/>
          </g>
          <g transform="translate(507.2832,249.1479)">
            <path d="M0 0 28.6 0" class="s17"/>
          </g>
        </g>
        <g clip-path="url(#clipPath654)" opacity="0.3">
          <g transform="translate(467.7773,201.4111)">
            <path fill="#0964af" d="m0 0c0-8.3-6.7-15-15-15-8.3 0-15 6.7-15 15 0 8.3 6.7 15 15 15C-6.7 15 0 8.3 0 0"/>
          </g>
        </g>
        <g transform="translate(455.752,201.1865)">
          <path fill="#fff" d="m0 0c1.5 1 2.4 2.6 2.4 4.5 0 3-2.4 5.4-5.4 5.4-3 0-5.4-2.4-5.4-5.4 0-1.9 1-3.5 2.4-4.5-3.4-0.8-5.9-3.8-5.9-7.4l0-4.5c2.5-1.8 5.5-2.9 8.8-2.9 3.3 0 6.3 1.1 8.8 2.9l0 4.5C5.9-3.8 3.4-0.8 0 0"/>
        </g>
        <g fill="#ed7f12" transform="translate(477.1025,215.2061)">
          <path fill="#ed7f12" d="M0 0 0.7-1.5 2.3-1.7 1.2-2.9 1.5-4.5 0-3.7l-1.5-0.8 0.3 1.6-1.2 1.1 1.6 0.2L0 0Z"/>
        </g>
        <g fill="#ed7f12" transform="translate(484.1846,215.2061)">
          <path fill="#ed7f12" d="M0 0 0.7-1.5 2.3-1.7 1.2-2.9 1.5-4.5 0-3.7l-1.5-0.8 0.3 1.6-1.2 1.1 1.6 0.2L0 0Z"/>
        </g>
        <g transform="translate(491.2676,215.2061)">
          <path fill="#ed7f12" d="M0 0 0.7-1.5 2.3-1.7 1.2-2.9 1.5-4.5 0-3.7l-1.5-0.8 0.3 1.6-1.2 1.1 1.6 0.2L0 0Z"/>
        </g>
        <g transform="translate(498.3506,215.2061)">
          <path fill="#0964af" d="M0 0 0.7-1.5 2.3-1.7 1.2-2.9 1.5-4.5 0-3.7l-1.5-0.8 0.3 1.6-1.2 1.1 1.6 0.2L0 0Z"/>
        </g>
        <g clip-path="url(#clipPath690)" opacity="0.3">
          <g transform="translate(505.4326,215.2061)">
            <path fill="#0964af" d="M0 0 0.7-1.5 2.3-1.7 1.2-2.9 1.5-4.5 0-3.7l-1.5-0.8 0.3 1.6-1.2 1.1 1.6 0.2L0 0Z"/>
          </g>
        </g>
        <g clip-path="url(#clipPath706)" opacity="0.1">
          <g transform="translate(475.5361,206.8535)">
            <path d="M0 0 15.1 0" class="s17"/>
          </g>
          <g transform="translate(503.1807,200.8223)">
            <path d="M0 0 32.7 0" class="s17"/>
          </g>
          <g transform="translate(475.5361,200.8223)">
            <path d="M0 0 22.7 0" class="s17"/>
          </g>
          <g transform="translate(475.5361,194.791)">
            <path d="M0 0 60.3 0" class="s17"/>
          </g>
          <g transform="translate(489.2627,188.7598)">
            <path d="M0 0 46.6 0" class="s17"/>
          </g>
          <g transform="translate(475.5361,188.7598)">
            <path d="M0 0 9 0" class="s17"/>
          </g>
          <g transform="translate(495.5498,206.8535)">
            <path d="M0 0 40.3 0" class="s17"/>
          </g>
        </g>
        <g clip-path="url(#clipPath746)" opacity="0.3">
          <g transform="translate(467.7773,159.1172)">
            <path fill="#0964af" d="m0 0c0-8.3-6.7-15-15-15-8.3 0-15 6.7-15 15 0 8.3 6.7 15 15 15C-6.7 15 0 8.3 0 0"/>
          </g>
        </g>
        <g transform="translate(455.752,158.8916)">
          <path fill="#fff" d="m0 0c1.5 1 2.4 2.6 2.4 4.5 0 3-2.4 5.4-5.4 5.4-3 0-5.4-2.4-5.4-5.4 0-1.9 1-3.5 2.4-4.5-3.4-0.8-5.9-3.8-5.9-7.4l0-4.5c2.5-1.8 5.5-2.9 8.8-2.9 3.3 0 6.3 1.1 8.8 2.9l0 4.5C5.9-3.8 3.4-0.8 0 0"/>
        </g>
        <g fill="#ed7f12" transform="translate(477.1025,172.9121)">
          <path fill="#ed7f12" d="M0 0 0.7-1.5 2.3-1.7 1.2-2.9 1.5-4.5 0-3.7l-1.5-0.8 0.3 1.6-1.2 1.1 1.6 0.2L0 0Z"/>
        </g>
        <g fill="#ed7f12" transform="translate(484.1846,172.9121)">
          <path fill="#ed7f12" d="M0 0 0.7-1.5 2.3-1.7 1.2-2.9 1.5-4.5 0-3.7l-1.5-0.8 0.3 1.6-1.2 1.1 1.6 0.2L0 0Z"/>
        </g>
        <g fill="#ed7f12" transform="translate(491.2676,172.9121)">
          <path fill="#ed7f12" d="M0 0 0.7-1.5 2.3-1.7 1.2-2.9 1.5-4.5 0-3.7l-1.5-0.8 0.3 1.6-1.2 1.1 1.6 0.2L0 0Z"/>
        </g>
        <g fill="#ed7f12" transform="translate(498.3506,172.9121)">
          <path fill="#ed7f12" d="M0 0 0.7-1.5 2.3-1.7 1.2-2.9 1.5-4.5 0-3.7l-1.5-0.8 0.3 1.6-1.2 1.1 1.6 0.2L0 0Z"/>
        </g>
        <g fill="#ed7f12" transform="translate(505.4326,172.9121)">
          <path fill="#ed7f12" d="M0 0 0.7-1.5 2.3-1.7 1.2-2.9 1.5-4.5 0-3.7l-1.5-0.8 0.3 1.6-1.2 1.1 1.6 0.2L0 0Z"/>
        </g>
        <g clip-path="url(#clipPath786)" opacity="0.1">
          <g transform="translate(535.8799,146.4648)">
            <path d="M0 0-15.1 0" class="s17"/>
          </g>
          <g transform="translate(486.9941,152.4961)">
            <path d="M0 0-11.5 0" class="s17"/>
          </g>
          <g transform="translate(535.8799,152.4961)">
            <path d="M0 0-43.9 0" class="s17"/>
          </g>
          <g transform="translate(535.8799,158.5273)">
            <path d="M0 0-60.3 0" class="s17"/>
          </g>
          <g transform="translate(494.7168,164.5586)">
            <path d="M0 0-19.2 0" class="s17"/>
          </g>
          <g transform="translate(535.8799,164.5586)">
            <path d="M0 0-36.4 0" class="s17"/>
          </g>
          <g transform="translate(515.8652,146.4648)">
            <path d="M0 0-40.3 0" class="s17"/>
          </g>
        </g>
        <g clip-path="url(#clipPath826)" opacity="0.4">
          <g transform="translate(497.3154,235.0771)">
            <path fill="#5ab5e2" d="m0 0c2.9 4.1 7.1 6.8 12 7.7 1.1 0.2 2.2 0.3 3.3 0.3 3.8 0 7.5-1.2 10.6-3.4 4.1-2.9 6.8-7.1 7.7-12 0.9-4.9-0.2-9.9-3.1-13.9C27.7-25.4 23.5-28.2 18.6-29 13.6-29.9 8.7-28.8 4.6-26-3.8-20.1-5.9-8.4 0 0m1.6-30.3c4.1-2.8 8.8-4.3 13.7-4.3 1.4 0 2.8 0.1 4.2 0.4 3.5 0.6 6.6 2 9.4 3.9l8.9-10.8c0-0.4 0-0.7 0.1-1.1 0.2-1 0.9-2 1.9-2.3 0.3-0.1 0.6-0.1 0.7-0.4 0.1-0.1 0.1-0.3 0.1-0.4 0.1-0.8 0.9-1.3 1.7-1.2l0 0 6.6-8c0-0.4 0.2-0.8 0.5-1 0.2-0.1 0.5-0.2 0.5-0.5 0-0.1 0-0.2-0.1-0.3-0.1-0.3 0-0.8 0.3-1 0.3-0.2 0.7-0.3 1-0.1 0-0.7 0.7-1.4 1.4-1.5l6.8-8.2c0.5-0.6 1.3-1 2.1-1 0.1 0 0.2 0 0.3 0l0 6.5-4.9 5.9c0.1 0.1 0.1 0.1 0.2 0.2 0.3 0.3 0.5 0.5 0.9 0.8l0.1-0.3c0 0 1.5 0.5 3.7 1.3l0 4.9c-2.8-1.7-5-3.1-5-3.1l0-0.1c-0.1 0-0.1 0-0.2-0.1-0.3-0.1-1.5 0-2.6 0l-6.7 8c1.2 0.3 2.9 0.8 4.6 1.4 0 0 0.1 0 0.1 0 0.2 0.1 0.4 0.1 0.7 0.2 0.1 0 0.2 0.1 0.2 0.1 0.2 0.1 0.4 0.1 0.5 0.2 0.1 0 0.2 0.1 0.3 0.1 0.2 0.1 0.3 0.1 0.5 0.2l0.3 0.1c0.2 0.1 0.3 0.1 0.5 0.2 0.1 0 0.2 0.1 0.3 0.1 0.2 0.1 0.3 0.1 0.5 0.2 0.1 0 0.2 0.1 0.3 0.1 0.2 0.1 0.3 0.1 0.5 0.2 0.1 0 0.2 0.1 0.2 0.1 0.2 0.1 0.4 0.2 0.7 0.3 0 0 0 0 0.1 0 0.2 0.1 0.5 0.2 0.7 0.3 0.1 0 0.1 0.1 0.2 0.1 0.2 0.1 0.3 0.2 0.5 0.2 0.1 0 0.2 0.1 0.2 0.1 0.1 0.1 0.3 0.1 0.4 0.2 0.1 0 0.2 0.1 0.2 0.1 0.1 0.1 0.2 0.1 0.3 0.2 0.1 0 0.2 0.1 0.2 0.1 0.1 0.1 0.2 0.1 0.3 0.2 0.1 0 0.1 0.1 0.2 0.1 0.1 0.1 0.2 0.1 0.3 0.2 0.1 0 0.1 0.1 0.2 0.1 0.1 0.1 0.2 0.1 0.3 0.2 0 0 0.1 0.1 0.1 0.1 0 0 0 0 0 0l0 26.4c-0.1-0.1-0.3-0.2-0.4-0.4-2.7-2.9-4.6-21.3-4.6-22-0.1-0.5-7.7-4.9-11.5-7.1 0 0.5-0.2 1.1-0.5 1.4-0.4 0.4-0.9 0.7-1.5 0.9-0.1 0-0.2 0.1-0.2 0l-10 12.1c0.7 0.8 1.4 1.6 2 2.5 3.7 5.3 5.1 11.6 4 17.9C37.8-0.2 34.3 5.3 29 9 23.8 12.6 17.4 14.1 11.1 12.9 4.8 11.8-0.7 8.3-4.4 3.1-11.9-7.8-9.3-22.8 1.6-30.3"/>
          </g>
        </g>
        <g clip-path="url(#clipPath842)" opacity="0.4">
          <g transform="translate(369.4541,118.3906)">
            <path fill="#bdeeff" d="m0 0c0-0.9-9.5-1.6-21.1-1.6-11.7 0-21.1 0.7-21.1 1.6 0 0.9 9.5 1.6 21.1 1.6C-9.5 1.6 0 0.9 0 0"/>
          </g>
        </g>
        <g transform="translate(375.8433,201.1621)">
          <path fill="#ffbe9d" d="m0 0c0 0 2.3-2.7 2.8-2.9 0.3-0.1 2.1-0.4 2.6-0.5 0.2 0 0.4-0.1 0.6-0.2 0.2-0.1 0.4-0.3 0.5-0.4 0.4-0.5 0.8-1 1.2-1.5 0.1-0.1 0.2-0.3 0.3-0.4 0.1-0.2 0.1-0.4 0.2-0.6 0.3-1.1 0.5-2.3 0.7-3.5 0-0.1 0-0.1 0-0.2-0.1-0.1-0.3-0.1-0.4 0-0.1 0.1-0.2 0.2-0.3 0.3 0-0.1 0-0.2 0-0.3-0.2-0.1-0.4 0-0.6 0.1-0.8 0.5-1.6 1.1-2 2-0.1 0.2-0.2 0.3-0.3 0.5-0.4 0.4-0.9 0.4-1.4 0.5-0.4 0.1-0.9 0.2-1.3 0.4-0.8 0.3-0.9 1.3-0.9 1.4 0 0.1-0.1 0.2-0.2 0.2-0.5 0.4-2.5 1.9-2.5 1.9"/>
        </g>
        <g transform="translate(348.46,259.4717)">
          <path fill="#170d54" d="m0 0c1.1-0.3 1.7-1.7 2.1-2.7 0.5-1.2 0.7-2.4 0.8-3.7 0.1-0.9 0.2-1.8-0.2-2.6-0.2-0.4-0.4-0.8-0.7-1.1-0.2-0.2-0.3-0.4-0.5-0.5-0.2-0.1-0.5-0.2-0.7-0.1-0.3 0.1-0.5 0.5-0.6 0.9-0.6 2.3-1.3 4.7-2.6 6.7"/>
        </g>
        <g transform="translate(349.6821,252.1504)">
          <path fill="#f2a181" d="M0 0C0 0.7 0.8 1.2 1.5 0.5 2-0.2 2.2-1.4 2.2-2.3 2.2-3.3 1.4-3.5 0.7-3.7"/>
        </g>
        <g transform="translate(357.6929,126.5234)">
          <path fill="#ffccb0" d="m0 0c0 0 0-2.3-0.1-3.1-0.2-0.8-2.7-0.5-3-0.1-0.2 0.5 0.1 4.2 0.1 4.2"/>
        </g>
        <g fill="#ed7f12" transform="translate(353.8145,122.6055)">
          <path fill="#ed7f12" d="m0 0c-0.1-0.8-0.1-2.4-0.1-2.4l2.6-0.6 0.3 0.5c0 0 0.7-0.6 1.6-0.8 0.6-0.2 1.9-0.3 2.5-0.2 2.2 0.1 3.7 0.8 3.8 1.2 0.3 1.3-2.6 1.2-3.2 1.2-1.7 0.1-2.8 1.4-3.2 2.2-0.2 0.6-0.1 0.8-0.5 0.7 0 0-0.3 0-0.6-0.4C3 0.6 2.3 0.3 1.7 0.5 1.3 0.5 0.9 0.7 0.7 1 0.7 1 0.1 0.8 0 0"/>
        </g>
        <g fill="#1c3661" transform="translate(352.6348,154.248)">
          <path fill="#1c3661" d="m0 0c0.3 4-3 9.3-3 9.3 0 0 8.7 4.8 8.8 6.2 0 0 1.2-8.2 1.6-11 0.7-5-1.8-33.6-1.8-33.6 0 0-1.8-0.5-4.2-0.1 0 0-0.4 11-2.3 18.5C-1.6-7.1-0.3-1 0 0"/>
        </g>
        <g fill="#1c3661" transform="translate(351.9395,200.0068)">
          <path fill="#1c3661" d="m0 0c3.3-7.3 6.8-30.7 7.6-38.7 0.4-3.4-2.5-7.4-5.8-4.3-4 3.7-9.5 20.6-11.5 23.6-2 3-9.5 5.7-4.4 20.9"/>
        </g>
        <g transform="translate(337.3481,126.3818)">
          <path fill="#ffccb0" d="m0 0c0 0-0.3-3.2-0.4-4-0.1-0.8-2.7-0.7-3-0.3-0.3 0.4-0.2 4.2-0.2 4.2"/>
        </g>
        <g fill="#ed7f12" transform="translate(333.2261,121.4629)">
          <path fill="#ed7f12" d="m0 0c-0.1-0.8 0.1-2.2 0.1-2.2l3-0.2 0.2 0.5c0 0 0.9-0.6 1.7-0.6l2.5-0.2c1.8-0.1 2.9 0 3 0.4 0.3 1.3-1.9 1.4-2.5 1.5C6.3-0.8 4.6 0.1 4.2 1 4 1.6 4.1 1.7 3.8 1.6 3.8 1.6 3.5 1.6 3.2 1.2 2.9 0.7 2.3 0.3 1.6 0.5 1.3 0.6 0.9 0.7 0.6 1 0.6 1 0.1 0.8 0 0"/>
        </g>
        <g fill="#1c3661" transform="translate(343.8369,154.7168)">
          <path fill="#1c3661" d="m0 0c-0.5-2.8-7.9-1.8-7.8 0.7 0.2 3.6-2.3 8.1-3.2 25.1-0.1 1.9-2 2.2-2.8 7.5-0.8 5.3 2.4 11.1 2.4 11.1l11.3 1.6c0 0 4.4-9.8 3.5-19.6C2.5 16.5 0.7 3.3 0 0"/>
        </g>
        <g fill="#1c3661" transform="translate(336.0937,156.041)">
          <path fill="#1c3661" d="m0 0c0 0-2.6-5.1-2.9-8.8-0.4-5.4 0.1-23.2 0.1-23.2 0 0 2.8-0.6 4.3-0.2 0 0 6.5 31.5 6.8 34.9C8.5 6.2 0 0 0 0"/>
        </g>
        <g transform="translate(356.332,234.2021)">
          <path fill="#57c6f2" d="m0 0c-1.3 1.5-5.4 3.9-10.8 3.7-3.7-0.1-14-0.7-15.1-3.2-0.6-1.3-1.2-14.4-0.4-18.9 0.6-3.4 2.3-11.8 2.3-13.9 0-2-1.1-2.9-0.6-3.5 1.1-1.3 9-1.9 12.6-1.9 3.3 0 8.8 0.9 9.1 1.9 0.4 1.6-0.6 1.5-0.8 3.1-0.1 1.6-0.9 12.4 0 13.9 1.5 2.5 3 9 3.1 10.9C-0.3-6 1.3-1.5 0 0"/>
        </g>
        <g clip-path="url(#clipPath906)" opacity="0.4">
          <g transform="translate(332.9614,223.5859)">
            <path fill="#5ab5e2" d="m0 0c-0.4-0.8-3-5.1-3-5.1l-0.1-0.5c0.1-0.9 0.2-1.7 0.3-2.3 0.6-3.4 2.3-11.8 2.3-13.9 0-2-1.1-2.9-0.6-3.5 0.5-0.5 2-0.9 3.9-1.2-0.4 0.5-0.8 1-0.9 1.3-0.2 0.6 0.8 0.4 1 0.9C3-23.7 0.6-13.9 0-9.2-0.6-4.4 0.4 0.8 0 0"/>
          </g>
        </g>
        <g transform="translate(348.7407,242.543)">
          <path fill="#ffbe9d" d="m0 0c0 0 0-4.5 0.2-4.7 0.2-0.2 1.1-0.6 1.1-0.6 0 0-0.6-3.9-1.6-3.6-1 0.3-7.5 3.6-7.5 3.6 0 0 0.9 0.4 0.9 0.7 0 0.4-0.9 7.5-0.9 7.5"/>
        </g>
        <g transform="translate(344.2207,258.9829)">
          <path fill="#ffbe9d" d="m0 0c0.9-0.3 3.4 0.3 4.1-0.8 0.7-1 1.3-3.5 1.6-4.2 0.5-1.4 0.9-2.8 1.2-4.3 0.5-1.8 1.3-5.2-0.5-6.8-0.5-0.4-0.7-0.6-1.4-0.7-0.9-0.2-1.7-0.3-2.6-0.5-1.3-0.2-2.8-0.5-4.1-0.1-1.8 0.6-2.7 3-3.2 4.6L-7.4-3.3 0 0Z"/>
        </g>
        <g fill="#ed7f12" transform="translate(348.6562,232.5078)">
          <path fill="#ed7f12" d="m0 0c0 0 0.4-16.7 1-26.8l-2.4-3.4-1.7 4.2c0 0-0.7 12.2 1.6 25.8L0 0Z"/>
        </g>
        <g fill="#ed7f12" transform="translate(349.2207,233.9707)">
          <path fill="#ed7f12" d="m0 0-0.1-0.2c-0.1-0.4-0.3-0.8-0.5-1.2l-1.5-0.1c0 0-1 0.5-1.2 1.1-0.1 0.6 1.7 1.5 1.7 1.5l0.2-0.1c0.5-0.2 1-0.5 1.3-0.9L0 0Z"/>
        </g>
        <g transform="translate(341.6768,239.4814)">
          <path fill="#eaeaea" d="m0 0c0 0-1.3-0.9-2-2.1 0.8-1.8 3.1-4.8 5-6.2 0.9 2.4 3.1 3.8 3.1 3.8 0 0-5.5 1.1-6 4.5"/>
        </g>
        <g transform="translate(347.6733,235.0205)">
          <path fill="#eaeaea" d="m0 0c0 0 1.9-0.7 3-2.8 0 0 0.4 2.8-0.4 5.3 0 0-1 1.7-1.4 1.7C1.3 2.2 0 0 0 0"/>
        </g>
        <g transform="translate(355.2295,235.1748)">
          <path fill="#57c6f2" d="m0 0c3.3-1.8 9-20.8 9.6-21 0.6-0.2 13.5-15.3 13.5-15.3l-2-2.8c0 0-13 9.4-16.7 13.6-2.6 2.9-7.6 15.9-7.6 15.9 0 0-0.1 11.5 3.2 9.6"/>
        </g>
        <g clip-path="url(#clipPath950)" opacity="0.4">
          <g transform="translate(360.8149,210.415)">
            <path fill="#5ab5e2" d="m0 0c-1.3 1.1-5.4 13.2-5.4 13.2l-1-4.1c1.6-3.8 3.7-8.3 5.1-9.8 3.7-4.1 16.7-13.6 16.7-13.6l0.8 1.1C16.3-13.3 1.3-1.1 0 0"/>
          </g>
        </g>
        <g transform="translate(338.3657,203.6338)">
          <path fill="#fe7d90" d="m0 0-19.7-3.7c-0.5-0.1-0.9-0.6-0.7-1.2l2.6-13.6c0.1-0.5 0.6-0.8 1.1-0.7l19.7 3.7c0.5 0.1 0.9 0.6 0.7 1.2L1.1-0.7C0.9-0.2 0.5 0.1 0 0"/>
        </g>
        <g transform="translate(338.1333,202.5879)">
          <path fill="#e5f8ff" d="m0 0-18.8-3.6 2.6-13.5 18.9 3.6L0 0Z"/>
        </g>
        <g transform="translate(338.6338,189.7754)">
          <path d="M0 0-2.1 11.5" class="s29"/>
        </g>
        <g transform="translate(336.856,189.4307)">
          <path d="M0 0-2.1 11.5" class="s29"/>
        </g>
        <g transform="translate(334.2979,188.9062)">
          <path d="M0 0-2.1 11.5" class="s29"/>
        </g>
        <g transform="translate(331.7397,188.3828)">
          <path d="M0 0-2.1 11.5" class="s29"/>
        </g>
        <g transform="translate(329.1816,187.8584)">
          <path d="M0 0-2.3 11.5" class="s29"/>
        </g>
        <g transform="translate(326.624,187.335)">
          <path d="M0 0-2.3 11.5" class="s29"/>
        </g>
        <g transform="translate(324.0659,186.8105)">
          <path d="M0 0-2.4 11.5" class="s29"/>
        </g>
        <g transform="translate(327.9282,193.7344)">
          <path fill="#ffbe9d" d="m0 0c0 0 0.8-1.6 1.2-2.4 0.3-0.5 2.3-2.3 3.2-3.7 0.4-0.7 0.8-1.4 0.7-2.2C4.9-9.1 4.2-9.8 3.4-9.7 3.2-9.6 2.9-9.5 2.8-9.6 2.7-9.7 2.6-9.8 2.6-9.9 2.4-10.2 2-10.4 1.7-10.4 1.4-10.3 1-10 1-9.7 0.4-10.2-0.5-10.2-1-9.7c0.3 0.3 0.5 0.6 0.5 1-0.1 0.4-0.4 0.7-0.6 1-0.4 0.5-0.6 1.2-0.6 1.9 0 0.5 0.1 1 0.2 1.4 0.1 1-0.1 2-0.6 2.9"/>
        </g>
        <g transform="translate(333.8584,225.5439)">
          <path fill="#57c6f2" d="m0 0c-0.6-2.1-9.7-16.1-9.7-16.1l4.9-17.7-2.8-1.7c0 0-8.6 14.3-8.7 18.4 0 4 6.3 18.9 10.9 25 1.5 1.9 4.4 2.9 4.4 2.9"/>
        </g>
        <g transform="translate(338.4224,247.9385)">
          <path fill="#000" d="M0 0C0.6 0.3 1.1 0.7 1.4 0.1 1.6-0.2 1.8-0.6 2.1-0.7 2.5-0.8 2.8-0.5 2.9-0.1 3 0.2 2.9 0.6 2.8 1 2.6 1.7 2.3 2.5 2.1 3.3 1.8 4 1.6 4.9 1.9 5.6c0.2 0.4 0.4 0.7 0.7 0.9 1 0.8 2.3 1.3 3.6 1.5 1.3 0.3 2.6 0.4 3.8 0.8 0.5 0.2 1 0.4 1.5 0.7 0.7 0.6 1 1.5 1 2.4 0 0.9-0.3 1.7-0.7 2.5-0.1-0.3-0.2-0.6-0.4-0.9-0.2 0.4-0.4 0.8-0.7 1.1C10.3 12.6 1.6 13.3-0.5 12.3-1.9 11.7-3 11.3-3 9-3 8.9-3.2 8.8-3.3 8.6-4.5 7.5-5.1 6.1-5.2 4c-0.2-2.5 1.3-5.3 2.7-7.4 0.4-0.5 0.6-0.9 1.1-1.3 0.5-0.4 1.4-0.6 2-0.5 0.6 0.1 1.9 0.1 1.9 0.7 0 0.5-1 1.3-1.2 1.6"/>
        </g>
        <g transform="translate(340.7046,245.54)">
          <path fill="#ffbe9d" d="m0 0c0 0 0.1-0.4-0.2-0.8-0.2-0.3-0.7-0.3-1-0.1-0.9 0.3-1.6 1.2-1.7 2.1-0.2 1.1 0.4 2.2 1.4 1.9 0.6-0.2 1-0.8 0.9-1.4"/>
        </g>
        <g transform="translate(348.7368,242.1562)">
          <path fill="#f2a181" d="m0 0-2.8-0.5c0 0 0.9-1 2.8-1"/>
        </g>
        <g fill="#1c3661" transform="translate(354.9468,154.3018)">
          <path fill="#1c3661" d="M0 0C0.5 1.7-0.9 4.2-1.6 6.2-2.3 8.1-7.6 23.4-7.6 23.4l-1.2-6.2c1.1-2.7 2.3-5.5 3.5-8l0 0c0.5-1 0.9-1.9 1.4-2.7 0.8-1.9 1.7-4.4 1.6-6.6-0.3-1-1.6-7.1-0.8-10.6 1.8-7.5 2.3-18.5 2.3-18.5 0.5-0.1 0.9-0.1 1.3-0.2-0.2 2.7-0.4 7.5-0.4 8.5 0 1.3-1.7 9.1-1.6 12.1C-1.5-5.7-0.5-1.7 0 0"/>
        </g>
        <g transform="translate(341.5811,193.3877)">
          <path fill="#fe7d90" d="m0 0-1.7-0.4-1.2 6.4 1.7 0.4L0 0Z"/>
        </g>
        <g transform="translate(341.5552,196.7061)">
          <path fill="#fe7d90" d="M0 0C-0.1 0.5 0.2 0.9 0.7 1 1.2 1.1 1.6 0.8 1.7 0.3 1.8-0.1 1.5-0.6 1-0.7 0.5-0.8 0.1-0.5 0 0M2.4 0.5C2.2 1.3 1.4 1.8 0.6 1.7L-1.4 1.3-0.8-1.7c0 0 1.6 0.3 2 0.4 0.8 0.2 1.4 1 1.2 1.8"/>
        </g>
        <g clip-path="url(#clipPath1034)" opacity="0.4">
          <g transform="translate(424.6387,106.1533)">
            <path fill="#bdeeff" d="m0 0c0-1.1-9.8-2-21.9-2-12.1 0-21.9 0.9-21.9 2 0 1.1 9.8 2 21.9 2C-9.8 2 0 1.1 0 0"/>
          </g>
        </g>
        <g clip-path="url(#clipPath1050)" opacity="0.4">
          <g transform="translate(429.7119,224.9551)">
            <path fill="#5ab5e2" d="m0 0-13.5 1.8 0-27 7.3-1c0.6-0.1 1.2 0.3 1.4 0.9L1-1.4C1.2-0.7 0.7-0.1 0 0"/>
          </g>
        </g>
        <g transform="translate(412.7217,228.0283)">
          <path fill="#57c6f2" d="m0 0-4.8-21.3c-0.1-0.6 0.3-1.1 0.9-1.2l15.1-2.2c0.5-0.1 1 0.3 1.1 0.8L17.1-2.6c0.1 0.6-0.3 1.2-0.8 1.2L1.1 0.8C0.6 0.9 0.1 0.5 0 0"/>
        </g>
        <g transform="translate(413.665,227.3408)">
          <path fill="#e5f8ff" d="M0 0-4.6-20.4 10.3-22.5 15-2.2 0 0Z"/>
        </g>
        <g transform="translate(427.0645,223.6865)">
          <path d="M0 0-12.7 1.8" class="s29"/>
        </g>
        <g transform="translate(426.6348,221.7588)">
          <path d="M0 0-12.7 1.8" class="s29"/>
        </g>
        <g transform="translate(421.333,220.1611)">
          <path d="M0 0-8 1.1" class="s29"/>
        </g>
        <g transform="translate(420.7676,218.5049)">
          <path d="M0 0-8 1.1" class="s29"/>
        </g>
        <g transform="translate(420.2021,216.8477)">
          <path d="M0 0-8 1.1" class="s29"/>
        </g>
        <g transform="translate(423.1201,207.6924)">
          <path d="M0 0-8 1.1" class="s29"/>
        </g>
        <g transform="translate(406.9131,206.4746)">
          <path fill="#f2a181" d="M0 0C0.9 0.4 1.5 1.1 2.1 1.9L3.9 4C4.1 4.3 4.4 4.6 4.4 5 3.4 5.1 2.8 3.7 1.7 3.7 2.2 5.3 2.9 6.9 3.7 8.4 4 8.8 4.2 9.2 4 9.6 2.9 9.2 2 8.4 1.2 7.6 0.7 7 0.2 6.3-0.3 5.6-1.6 3.6-2.4 1.3-3-1"/>
        </g>
        <g transform="translate(402.5869,189.3184)">
          <path fill="#ffbe9d" d="m0 0-10.8 9.1c0 0-5-6.8-3.1-13.4 0.9-3.2 2.1-4.8 2.6-6.4 0.5-1.4 3.7-21.7 3.5-23.2-0.2-1.5-2-5.6-2.6-10-0.8-5.2-0.7-22.3-1.3-26.8-0.6-4.5 3.6-5.3 3.8-3.8 2 13.1 7.2 33.5 7.9 40C0.6-27.8 0.3-15.8 0 0"/>
        </g>
        <g transform="translate(402.6182,176.4229)">
          <path fill="#f2a181" d="m0 0-4.7-10.8c2-3.3 3.1-7.3 3.3-11.3 0.1-2.1-0.1-4.2 0-6.2 0-0.1 0-0.3 0.1-0.4 0.6 3.1 1.1 5.6 1.3 7.3 0.5 4.6 0.5 12 0.4 21.5C0.2 0 0.1 0 0 0"/>
        </g>
        <g transform="translate(395.3437,119.1572)">
          <path fill="#ffbe9d" d="m0 0c0 0-1-4.7-0.7-5.4 0.3-0.6 1.2-2.4 2.2-3 1-0.7 3.4-1.5 3.5-1.7 0.2-0.3 0.2-0.7-0.1-1-0.8-0.7-2.3-1-3.3-0.8-3.1 0.5-3.5 1.9-5.3 2.1-0.3 0-0.9-0.4-1.8 0-0.9 0.4-1.3 1.3-1.2 2 0.1 1.3 0.9 2.4 1.4 3.4 0.5 1 0.9 5.4 0.9 5.4"/>
        </g>
        <g fill="#1c3661" transform="translate(400.4951,107.8555)">
          <path fill="#1c3661" d="m0 0c0.2 0.4 0.3 1 0.1 1.1-0.3 0.2-1.3 0.9-1.9 1.2-0.6 0.3-1.6 0.5-1.2 0.3 0.3-0.2-0.3-0.9-0.9-0.8-2 0.1-3.4 1.4-4.5 1.7-1.6 0.4-2.3 2.3-2.4 2.6-0.3-0.2-1-1.7-1.2-2.2-0.1-0.4-0.4-1.2-0.2-1.7 0.1-0.3 0.3-0.9 0.2-1.6 0 0 0.3-0.2 1.2-0.4 0.5-0.1 1.2 0 1.2 0l0.1 1c0 0 0.4 0 1-0.1C-8 1-7.1 0.5-7 0.4-6.8 0.1-6.6-0.4-6.3-0.5-5.5-0.9-4.7-1.1-3.7-1.2-1.6-1.3-0.4-0.7 0 0"/>
        </g>
        <g transform="translate(417.3027,108.0527)">
          <path fill="#ffbe9d" d="m0 0c-0.2 0.3-2.7 0.7-3.9 1.2-1.1 0.5-2.5 2-2.7 2.6-0.3 0.6-0.2 3.9-0.2 5.2 0.2 9.3 2 32.1 2.2 37.5 0.4 9.5-0.8 19.3-4.4 34.5l-13.6 10.4c0 0-3.8-7.1-2.5-13.8 0.7-3.9 4-4.5 4.5-6 0.5-1.5 8.8-26.1 8.8-26.1 0 0-1.6-5.3-1.7-11.1-0.1-5 2.2-20 2.6-25.7 0-1.1 0.2-3.8-0.1-4.6-0.4-1-1.4-2.3-1.4-3.6 0-0.8 0.6-1.5 1.5-1.8 1-0.3 1.5 0.3 1.8 0.3 1.9 0.1 2.4-1.2 5.8-1.2 1 0 2.5 0.6 3.3 1.4 0.3 0.3 0.2 0.7 0 1"/>
        </g>
        <g fill="#1c3661" transform="translate(417.5869,106.8857)">
          <path fill="#1c3661" d="M0 0C0.2 0.4 0.2 1-0.1 1.1-0.4 1.3-1.6 1.8-2.3 2-2.9 2.1-4 2.2-3.6 2.1-3.2 2-3.8 1.2-4.3 1.1-6.4 0.9-8.1 2-9.3 2.1c-1.7 0.1-2.4 1.9-2.5 2.2-0.3-0.2-1.1-1.9-1.2-2.4-0.1-0.5-0.2-1.3 0-1.7 0.1-0.3 0.4-0.9 0.4-1.6 0 0 0.4-0.2 1.3-0.2 0.6 0 1.3 0.2 1.3 0.2l0 1c0 0 0.5 0.1 1 0.1 0.6 0 1.3-0.3 1.7-0.6 0.3-0.2 0.6-0.6 0.9-0.7 1-0.2 1.6-0.3 2.7-0.2C-1.5-1.5-0.3-0.7 0 0"/>
        </g>
        <g fill="#1c3661" transform="translate(392.0937,199.5547)">
          <path fill="#1c3661" d="m0 0c-0.9-1-4.2-6.5-4.2-10.9 0-4.5 1.6-7.3 1.7-8.2 1-6.8 2-15 2-15.5 0-0.4 3.9-3 9.1-2.7 9.6 0.6 13.3 3.1 13.3 3.1 0 0-0.5 16.5-1.9 24.6-0.7 4.1-4 10.6-4 10.6"/>
        </g>
        <g transform="translate(383.3369,217.3535)">
          <path fill="#ffbe9d" d="m0 0c0 0 1.5-7.7 2-9 0.4-1.4 2.4-10 4.3-9.9 1.9 0.2 12.3 8.8 12.3 8.8l-1.5 3-9.2-4.4c0 0-0.8 9.9-1.6 12.3"/>
        </g>
        <g transform="translate(386.8799,212.625)">
          <path fill="#f2a181" d="m0 0c1-3.4 3-7 3.6-9.7 0.1-0.5 6.5 1.8 6.5 4.2"/>
        </g>
        <g fill="#ed7f12" transform="translate(389.5449,228.001)">
          <path fill="#ed7f12" d="m0 0c0 0-3-0.3-4.6-1.5-3.9-3-0.9-13.9-0.9-13.9 0 0-0.2-0.6 2.4-0.4 2.6 0.1 4.8 0.9 4.8 0.9l-0.8 8.9"/>
        </g>
        <g transform="translate(386.0664,221.8223)">
          <path fill="#b03d44" d="M0 0C0 0-0.3-6.4 0.8-9.7 2-9.6 3-9.4 3-9.4L0 0Z"/>
        </g>
        <g transform="translate(404.0693,248.1348)">
          <path fill="#ffbe9d" d="m0 0c1.8-2.4 1.5-5.7 1-8.7-0.2-1.5-0.5-3-0.7-4.5-0.1-0.7-0.3-1.5-0.8-1.9-0.6-0.5-1.4-0.5-2.1-0.4 0-1.2 0-2.5 0-3.7-2.1 0-4.2-0.1-6.4 0 0 0.9-0.2 1.7-0.5 2.5-1 0-1.7 1.1-2.1 2-0.5 1.1-0.8 2.3-1.1 3.4-0.4 1.5-0.9 3.1-0.9 4.7 0 1.6 0.3 3.2 1.3 4.5 0.7 0.8 1.6 1.4 2.6 1.9 1.3 0.7 2.9 1.2 4.3 0.6"/>
        </g>
        <g fill="#000" transform="translate(401.873,236.8242)">
          <path fill="#000" d="M0 0C-0.2 1.2-0.2 2 0.2 2.8 0.3 3.1 0.5 3.3 0.7 3.5 1.1 3.7 1.5 3.8 1.9 3.6 2.1 3.5 2.3 3.3 2.4 3.1c0.4 1.7 0.5 3.5 0.4 5.2-0.2 2.8-1.9 4.9-4.3 5.9-4.5 1.8-11 0-12.8-4.4-1.4-3.3-0.7-8.1 2-10.9 2.3-2.5 5.7-2.8 8.8-2.3 1.6 0.3 4 0.1 4.9 2.3C1.5-1.1 1.3-0.9 1.1-0.9 0.5-1 0-0.2 0 0"/>
        </g>
        <g fill="#000" transform="translate(402.2187,242.6924)">
          <path fill="#000" d="m0 0c0.2-0.3 0.1-0.6 0.3-0.9 0.3-0.4 0.6-0.6 1.1-0.8 0.8-0.4 0.6-1.5 0.6-2 0.6 0.4 0.7 1.4 0.8 2 0.2 0.6 0.3 1.2 0.4 1.8 0.2 0.6 0.5 1.1 0.5 1.7C3.9 3.9 2.6 6.3 1 7.5-0.2 8.3-1.9 8.3-3.2 7.4-3.8 7.1-4.2 6.5-4.4 5.9-4.5 5.7-4.6 5.3-4.5 5.1"/>
        </g>
        <g class="s31" transform="translate(392.0029,227.9727)">
          <path d="m0 0c0.1 0.7 0.3 1.6 1 1.9 0.2 0.1 0.4 0.1 0.6 0.1 2.1 0.2 4.2 0.3 6.2 0.3 0.9 0 1.8-0.1 2.5-0.4 1.2-0.6 1.9-1.9 2.5-3.1" class="s31"/>
        </g>
        <g fill="#ed7f12" transform="translate(409.542,201.3389)">
          <path fill="#ed7f12" d="m0 0c-0.3 0.4-1 0.9-1.2 1.4-0.6 1.1-1.1 5.9-0.9 7.1 0.2 1.3 1.4 2 1.9 4.9 0.7 3.7-0.9 6.6-1.7 7.9-1.2 1.8-0.5 1.8-0.9 3.9-0.1 0.4-0.2 0.8-0.4 1.1-0.3 0.3-2.1 1.1-2.4 1.1-3.4 0.5-5.3 0.1-8.7 0-1.7-0.1-3.4-0.3-5-0.6-1.8-0.4-3.4-0.9-3.8-3.4-0.6-3.8-0.1-7.7 1.1-11.4 0.8-2.4 5.4-10.8 4.2-12.4-0.3-0.4-0.9-1.1-1-1.5-0.3-1.7 3.5-2.3 5.2-2.4 2.5-0.2 5.3-0.1 7.8 0 1.9 0.1 6 0.7 6.3 3.1C0.5-0.7 0.2-0.3 0 0"/>
        </g>
        <g fill="#000" transform="translate(393.1084,234.877)">
          <path fill="#000" d="m0 0c-1.3 0.4-2.7-0.4-3.6-1.4-1-1.2-1.4-3-0.5-4.3 0.3-0.5 0.8-0.8 1.4-1.1 1.5-0.9 3.4-1.4 5.1-0.9 1.7 0.4 3.2 2 3.2 3.7 0 1.6-1.2 2.9-2.4 4"/>
        </g>
        <g transform="translate(406.4121,215.6094)">
          <path fill="#ffbe9d" d="m0 0c0 0 6.2-15 8.9-15 2 0 6.8 13.9 6.8 13.9L12.7 0.3 9.3-5.5 5.8 5.3"/>
        </g>
        <g transform="translate(418.46,214.8594)">
          <path fill="#ffbe9d" d="M0 0C0 0 1 1.6 0.9 2.7 0.9 3.1 0.7 5.2 0.9 5.6 1.1 6 1.6 7.3 1.9 7.6 2.2 7.8 3.3 8.2 3.5 8 3.8 7.9 4.1 8.7 4.5 8.6 5 8.6 5.4 8.2 5.4 7.8 5.4 7.4 5.9 7.3 6 7 6.1 6.7 6 6.5 6.2 6.3 6.3 6 6.6 6.1 6.7 5.6 6.8 5.1 6.7 5 6.7 4.8 6.7 4.5 7 4.6 6.9 4.1 6.8 3.6 6.5 3 6.2 2.4 5.9 1.9 5.3 1.2 4.5 0.7 4.1 0.5 3.9 0 3.5-0.7"/>
        </g>
        <g transform="translate(420.1309,226.4727)">
          <path fill="#1b227a" d="m0 0c-0.1 0.1-0.3 0.3-0.5 0.1-0.2-0.2-0.2-0.5-0.1-0.6 0.1-0.1 1.8-4.2 1.8-4.2 0 0 0.1-0.2 0.4 0.1 0.3 0.3 0.2 0.4 0.2 0.4 0 0-1.7 4-1.8 4.1"/>
        </g>
        <g transform="translate(422.0684,222.6143)">
          <path fill="#f2a181" d="m0 0c-0.4-0.6-0.8-0.8-1.1-1.2-0.3-0.3-0.3-0.4-0.6-0.7 0.6 0 0.5 0.4 1.2 0.9 0.3 0.2 0.7 0.5 0.7 0.9C0.3 0 0.1 0.1 0 0"/>
        </g>
        <g fill="#ed7f12" transform="translate(400.6924,229.0117)">
          <path fill="#ed7f12" d="m0 0c1.6-0.1 6.3 0.7 9-2 2.2-2.3 3.5-8.3 4.3-10.8-2.2-2.2-4.3-4-7.6-3.3-0.1 0.1-1.8 5.3-3 5.8"/>
        </g>
        <g transform="translate(402.4902,162.3643)">
          <path fill="#170d54" d="m0 0c-0.6 4-4.4 16.2-4.6 16.6-2.1 1.6-3.4 3.3-4.1 4.6-0.5-2.7 0.8-5.3 1.9-7.8 2-4.3 3.2-9 4.9-13.5"/>
        </g>
        <g transform="translate(562.3447,224.7773)">
          <path fill="#57c6f2" d="m0 0c-2.7-2.9-4.6-21.3-4.6-22-0.1-0.7-13.6-8.3-13.6-8.3l1.9-2.2c0 0 14.4 3.6 17 6.8 2.2 2.7 7.3 24.4 7.3 24.4 0 0-3.5 6.2-7.9 1.4"/>
        </g>
        <g clip-path="url(#clipPath1202)" opacity="0.4">
          <g transform="translate(623.541,100.3662)">
            <path fill="#bdeeff" d="m0 0c0-1.5-18-2.8-40.2-2.8-22.2 0-40.2 1.2-40.2 2.8 0 1.5 18 2.8 40.2 2.8C-18 2.8 0 1.5 0 0"/>
          </g>
        </g>
        <g transform="translate(603.6016,115.0244)">
          <path fill="#ffbe9d" d="m0 0c0 0 1.1-2.1 1.7-2.8 0.6-0.7 3 0.8 3 1.4 0 0.6-2.1 3.9-2.1 3.9"/>
        </g>
        <g fill="#1c3661" transform="translate(609.2988,113.4209)">
          <path fill="#1c3661" d="M0 0C0.5-0.7 1.4-2.2 1.4-2.2L-0.7-4.1-1.3-3.9c0 0-0.3-1-1-1.6-0.5-0.5-1.6-1.2-2.2-1.5-2.1-1-3.9-1.1-4.1-0.9-1 1.1 1.8 2.4 2.3 2.7 1.5 1 1.9 2.7 1.8 3.7-0.1 0.7-0.3 0.8 0.1 0.9 0 0 0.3 0.1 0.7-0.1 0.6-0.3 1.4-0.3 1.9 0.2 0.3 0.3 0.6 0.6 0.6 1 0 0 0.7 0.2 1.2-0.6"/>
        </g>
        <g transform="translate(564.0215,107.7471)">
          <path fill="#ffbe9d" d="m0 0c0 0-0.5-1.3-0.5-2.2 0.1-0.9 2.9-0.9 3.3-0.5 0.3 0.4 0.5 4.4 0.5 4.4"/>
        </g>
        <g fill="#1c3661" transform="translate(567.5693,104.3438)">
          <path fill="#1c3661" d="m0 0c0-0.9-0.3-2.4-0.3-2.4l-3.3 0-0.2 0.5c0 0-1.1-0.5-1.9-0.5l-2.8 0c-2 0-3.2 0.2-3.2 0.6-0.2 1.4 2.2 1.4 2.8 1.4 1.8 0 3.8 0.8 4.2 1.7 0.3 0.6 0.2 0.8 0.6 0.7 0 0 0.3-0.1 0.6-0.5 0.3-0.6 1-1 1.7-0.9 0.4 0.1 0.8 0.2 1.1 0.5C-0.6 1.1 0 0.9 0 0"/>
        </g>
        <g fill="#ed7f12" transform="translate(580.8076,167.5596)">
          <path fill="#ed7f12" d="m0 0c0-0.1-2.7 2.9-2.7 2.8-1.1-5.4-6-23.3-7.6-28l0 0c-0.2-0.7-1.5-2.1-2.6-2.3-2.4-0.6-6.3 0.2-6.6 4.8 0 0.5 0.1 1.1 0 1.7-0.7 7.1 6.1 38.4 6.3 40.4 0.2 2 4.1 0.6 5.2 0.9C-2.5 22.2 1.4 7.5 0 0"/>
        </g>
        <g fill="#ed7f12" transform="translate(570.7656,139.8838)">
          <path fill="#ed7f12" d="m0 0c-1.1 3.3 0.6 7.2 0.6 7.2 0 0-9.5 7.3-10 2.8 0-0.4-0.4-3.4-0.4-5.1 0-6.1 2.1-25.3 2-37.1l0-0.8c0 0 1.6-0.3 4.4-0.3 0.1 0 0.3 0 0.4 0 0.8 7.3 2.5 17.3 3.3 27.3C0.5-3.4 0.2-0.6 0 0"/>
        </g>
        <g fill="#ed7f12" transform="translate(594.9443,141.3838)">
          <path fill="#ed7f12" d="m0 0c-1.9 2.4-3.9 3.4-4.5 5.2-1.4 4.2-1 21.1-1.1 25.8 0.4 1 4 10.6-3.4 17.6 0 0-6.7-2.9-12-3.2-4.2-0.3-6.3 0.1-6.3 0.1 0 0 4-6 4.2-8.6 0.4-4.5 8.8-31.7 9.5-33.2 1.5-3.4 3.1-4.7 3.6-5.4 3.7-4.9 12.5-15.1 19.1-24.9l0.4-0.6c0 0 1.3 0.5 3.8 2.2C9.7-18.5 6-7.5 0 0"/>
        </g>
        <g transform="translate(562.3447,224.7773)">
          <path fill="#57c6f2" d="M0 0C1.3 1.5 7 3.9 12.7 3.7 16.6 3.6 28.9 2.3 30.1-0.3 30.7-1.6 30.7-14.2 29.8-18.9 29.1-22.5 27.1-31.5 27.1-33.7c0-2.1 1.1-3 0.6-3.6-1.2-1.4-10-2-13.8-2-3.4 0-9.1 0.9-9.4 2-0.4 1.6 0.7 1.6 0.8 3.2 0.1 1.7 0.9 12.8 0 14.4C3.6-17 1.2-9.8 1.1-7.8 1-5.9-1.3-1.5 0 0"/>
        </g>
        <g transform="translate(571.708,233.2773)">
          <path fill="#ffbe9d" d="m0 0c0 0 0-4.7-0.2-4.9-0.2-0.2-1.1-0.6-1.1-0.6 0 0 0.7-4.1 1.7-3.8 1 0.3 7.8 3.7 7.8 3.7 0 0-1 0.4-1 0.8 0 0.4 0.9 7.8 0.9 7.8"/>
        </g>
        <g transform="translate(573.5322,248.7187)">
          <path fill="#170d54" d="m0 0c-0.8 0.6-2 0.6-2.9 0.2-0.9-0.4-1.6-1.3-2-2.3-0.4-0.9-0.5-2 0-2.9-0.7-0.2-1.1-1-1.1-1.7 0-0.8 0.5-1.5 0.9-2.2 0.4-0.6 1.2-1 1.9-0.8 0.5 0.1 0.9 0.5 1.2 0.9 0.3 0.4 0.5 0.9 0.7 1.4 0.9 2.2 1.5 4.6 1.9 6.9"/>
        </g>
        <g transform="translate(576.3984,250.3374)">
          <path fill="#ffbe9d" d="m0 0c-1-0.3-3.6 0.3-4.3-0.8-0.7-1.1-1.3-3.7-1.6-4.4-0.5-1.4-0.9-2.9-1.3-4.4-0.5-1.9-1.8-5.5 0.1-7.1 0.5-0.5 1.2-0.5 1.9-0.6 0.9-0.2 1.8-0.3 2.7-0.5 1.4-0.2 2.9-0.5 4.3-0.1 1.8 0.6 2.8 3.1 3.3 4.8L7.7-3.4 0 0Z"/>
        </g>
        <g transform="translate(580.4258,236.2119)">
          <path fill="#ffbe9d" d="M0 0C0 0-0.1-0.5 0.3-0.8 0.5-1 1-0.9 1.3-0.8 2.3-0.4 2.8 0.6 2.9 1.6 3 2.8 2.2 3.8 1.2 3.4 0.6 3.2 0.3 2.4 0.4 1.8"/>
        </g>
        <g fill="#000" transform="translate(582.8906,241.5498)">
          <path fill="#000" d="m0 0c-0.3-1-1.1-3.2-2-3-0.9 0.2 0.4 3.7 1.1 5C-2 2.1-3.4 2.3-3.8 3.3-3.9 3.5-3.9 3.8-4.2 3.9-4.4 3.9-4.6 3.8-4.7 3.7-5.5 3.1-6.6 3.6-7.2 4.3-7.3 4.5-7.5 4.7-7.7 4.7-7.8 4.6-7.9 4.6-8.1 4.5-9.3 3.6-12.7 3.6-12.7 5.2c-1.1-0.6-1.8 0.8-1.8 1.8 0.1 0.9 0.8 2.5 2.3 2.5-0.1 1.2 0.8 1.9 1.8 2.6 0.9 0.7 2.1 1 3.3 1.1 1.8 0.1 3.9-0.7 4.6-2.4 0-0.1 0.1-0.3 0.2-0.3 0.1-0.1 0.3 0 0.4 0C-0.5 10.8 1.1 10.6 2.1 9.6 3.2 8.6 3.6 6.9 2.7 5.7 3.8 5.4 4.4 4.2 4.2 3.1 4.1 2 3.3 1 2.6 0.2 3.8-0.2 4.2-1.8 3.6-2.8 3.1-3.9 1.5-4.5 0.3-4.3c0.3 1.1-0.2 2.4-1.3 2.6"/>
        </g>
        <g fill="#1c3661" transform="translate(571.7959,222.8633)">
          <path fill="#1c3661" d="m0 0c0 0-0.4-17.3-1.1-27.8l2.5-3.5 1.7 4.4c0 0 0.7 12.7-1.7 26.8L0 0Z"/>
        </g>
        <g transform="translate(571.21,224.3809)">
          <path fill="#170d54" d="m0 0 0.1-0.2c0.1-0.4 0.3-0.9 0.5-1.3l1.6-0.1c0 0 1.1 0.6 1.2 1.2C3.5 0.1 1.6 1.1 1.6 1.1L1.4 1C0.9 0.8 0.4 0.5 0 0L0 0Z"/>
        </g>
        <g transform="translate(579.0391,230.0996)">
          <path fill="#eaeaea" d="m0 0c0 0 1.3-1 2.1-2.1-0.8-1.8-3.2-5-5.2-6.4-0.9 2.5-3.2 4-3.2 4 0 0 5.7 1.2 6.2 4.6"/>
        </g>
        <g transform="translate(572.8154,225.4707)">
          <path fill="#eaeaea" d="m0 0c0 0-1.9-0.8-3.1-2.9 0 0-0.4 2.9 0.4 5.5 0 0 1 1.8 1.5 1.8C-1.4 2.2 0 0 0 0"/>
        </g>
        <g fill="#ed7f12" transform="translate(570.7656,139.8838)">
          <path fill="#ed7f12" d="m0 0c-0.3 0.8-0.4 1.6-0.4 2.4 0 0 0 0.1 0.1 0.1l0 0C0.8 5.7 3.4 14.8 5.3 22.1L2.3 32.6c0 0-1.8-21.4-2.4-23C-0.6 8.1-2.5 3.2-2.3 2.1-2.1 1-0.9-0.9-1.1-2.6-1.3-4.3-1.3-19.4-1.3-19.5c0.6 4.4 1.2 9 1.5 13.7C0.5-3.4 0.2-0.6 0 0"/>
        </g>
        <g transform="translate(533.7568,214.1611)">
          <path d="m0 0c-6.7-9.7-20-12-29.7-5.3-9.7 6.7-12 20-5.3 29.7 6.7 9.7 20 12 29.7 5.3C4.4 22.9 6.7 9.7 0 0Z" style="fill:none;stroke-width:5.3;stroke:#1c3661"/>
        </g>
        <g stroke="#1c3661" transform="translate(530.7412,209.8437)">
          <path d="M0 0 31.8-38.3" style="fill:none;stroke-linecap:round;stroke-linejoin:round;stroke-width:5.3;stroke:#1c3661"/>
        </g>
        <g transform="translate(560.1992,185.7061)">
          <path fill="#ffbe9d" d="m0 0c0 0-1.8-0.5-2.7-0.8-0.6-0.2-3.4 0.1-5-0.2-0.8-0.2-1.6-0.5-2.1-1.1-0.5-0.6-0.5-1.7 0.1-2.2 0.2-0.1 0.5-0.2 0.5-0.5 0-0.1 0-0.2-0.1-0.3-0.1-0.3 0-0.8 0.3-1 0.3-0.2 0.7-0.3 1-0.1 0-0.8 0.7-1.4 1.4-1.5 0 0.4 0.1 0.9 0.4 1.1 0.3 0.2 0.8 0.2 1.2 0.2 0.7 0.1 1.4 0.4 1.9 0.9 0.4 0.4 0.6 0.8 0.9 1.2 0.7 0.8 1.6 1.3 2.6 1.6"/>
        </g>
        <g clip-path="url(#clipPath1302)" opacity="0.4">
          <g transform="translate(592.4609,224.4873)">
            <path fill="#5ab5e2" d="M0 0C0 0.1-0.1 0.2-0.2 0.3L-8.4-7.6c-1.9-5.2-5.8-18.8-5.8-18.8 0 0-3.7-1.7-6.1-3-0.6-0.3-2.4-1.5-4.5-3 0-0.6-0.1-1.1-0.1-1.4-0.1-1.7-0.4-1.7 0.1-3.3 0-1.1-0.4-2.7-0.7-4.3 6.1 1.6 18.8 5.5 19.2 5.8 0.7 0.4 4.4 15.4 6.6 24.5C0.6-5.5 0.4-1 0 0"/>
          </g>
        </g>
        <g transform="translate(584.0488,217.7061)">
          <path fill="#57c6f2" d="m0 0c-0.8-2.2-4.8-21.2-4.8-21.2 0 0-3.9-1-6.4-2.3-1.9-1-15.2-9.3-15.2-9.3l1.3-3.1c0 0 23.7 8.4 24.7 9 1 0.6 10.5 24.6 10.5 28.8 0 2.5-2 5.1-2 5.1"/>
        </g>
        <g transform="translate(543.3496,190.4307)">
          <path fill="#ffbe9d" d="M0 0C-0.8-0.1-1.6 0.5-1.7 1.2-1.7 1.4-1.7 1.6-1.8 1.7-2 1.9-2.3 2-2.5 2-3.5 2.3-4.2 3.3-4.4 4.4-4.5 4.9-4.6 5.5-4.4 6-4.2 6.5-3.8 7-3.3 7.2-3.2 7.2-3.1 7.2-3 7.2-2.9 7.1-2.8 7-2.7 6.9-2.4 6.5-2.2 6.1-2.1 5.6-2 5.2-1.9 4.8-1.6 4.6-1.4 4.5-1.1 4.4-0.9 4.3-0.4 4.1-0.2 3.6-0.1 3.1 0.2 2.4-0.1 0.8 0 0"/>
        </g>
        <g transform="translate(546.208,195.3594)">
          <path fill="#ffbe9d" d="M0 0C0.1 0.6-0.1 1.3-0.5 1.7-0.9 2.2-1.5 2.4-2 2.6-2.2 2.7-2.4 2.7-2.4 2.6-2.5 2.5-2.5 2.4-2.4 2.3-2.2 1.9-1.8 1.8-1.5 1.4-1.4 1.3-1.4 1.1-1.3 1-1.1 0.5-0.6 0.1 0 0"/>
        </g>
        <g clip-path="url(#clipPath1330)" opacity="0.4">
          <g transform="translate(566.2803,207.9463)">
            <path fill="#5ab5e2" d="M0 0C0 0-2.2 5.6-2.7 7.9-3.7 2.4-3.4-7.1-4.3-8c-0.9-0.8-9.9-6-9.9-6 4.3 1.3 9.5 3.3 11 5 0.8 1 2.1 4.7 3.3 8.9"/>
          </g>
        </g>
        <g transform="translate(571.7031,232.8828)">
          <path fill="#f2a181" d="M0 0C0 0 3.8-0.8 4.5-0.7 5.2-0.6 3-1.9 2.6-1.9 2.2-2 0-1.7 0-1.7L0 0Z"/>
        </g>
        <g transform="translate(419.5107,364.0566)">
          <path fill="#80cfff" d="m0 0c0 0.1-5.3-3.2-5.3-3.2l1.4-9 2.6 6.8 6.9 1.3 9.9 9.3L0 0Z"/>
        </g>
        <g transform="translate(435.0186,369.1675)">
          <path fill="#a4e1ff" d="m0 0-19.4-17.4 2.6 6.8L0 0Z"/>
        </g>
        <g transform="translate(435.0186,369.1675)">
          <path fill="#c3ecfe" d="M0 0-25.7-5.5-20.8-8.3 0 0-16.8-10.6-8.5-15.7 0 0Z"/>
        </g>
        <g transform="translate(342.1245,250.6714)">
          <path fill="#170d54" d="M0 0C0.1 0.2 1.3 0.5 2.2 0.7 3.1 1 3.4 1.1 3.6 0.8 3.7 0.7 3.8 0.3 3.8-0.2 3.8-0.8 3.8-1.2 2.4-1.7 1.4-2 0.9-1.8 0.4-1.2 0-0.7-0.1-0.2 0 0m5.5 1.4c0 0.3 0.3 0.4 1.2 0.7 0.9 0.3 1.3 0.5 1.5 0.4C8.3 2.4 8.5 1.9 8.5 1.3 8.4 0.5 8.2 0.1 7.5-0.1 6.7-0.4 6.2-0.1 5.9 0.4 5.6 0.8 5.5 1.2 5.5 1.4m-6.7-2.1c0.1-0.1 0.5-0.1 0.6-0.1 0.2 0 0.1-0.1 0.9-0.9 0.6-0.6 1.5-0.7 3.1 0 1.2 0.6 0.9 1.5 1 2C4.4 0.7 4.5 0.8 4.6 0.8 4.8 0.9 5 0.8 5.3 0.5 5.6 0.1 6.1-0.8 7.4-0.5 8.5-0.3 8.8 0.2 8.9 0.9 9 2.1 9 2 9.1 2.2 9.2 2.3 9.1 2.8 9 3 8.9 3.2 8.2 3.1 7.4 2.8 6.6 2.6 5.4 2.2 5 1.9 4.6 1.6 4.7 1.4 4.5 1.3 4.3 1.3 4.2 1.4 3.7 1.5 3.2 1.6 1.1 0.9 0.4 0.7-0.4 0.5-1.5 0-1.4-0.2c0-0.1 0.1-0.3 0.2-0.5"/>
        </g>
        <g transform="translate(369.2334,308.5332)">
          <path fill="#c3ecfe" d="m0 0 38.7 0c2.5 0 4.5-2 4.5-4.5l0-25.1c0-2.5-2-4.5-4.5-4.5l-38.7 0c-2.5 0-4.5 2-4.5 4.5l0 25.1C-4.5-2-2.5 0 0 0"/>
        </g>
        <g transform="translate(407.0859,285.4253)">
          <path fill="#c3ecfe" d="M0 0 11.4 3.2 1.2 5.9"/>
        </g>
        <g clip-path="url(#clipPath1374)" opacity="0.3">
          <path fill="#0964af" d="m381.7 293.3 7.1 0 0-1.6-7.1 0 0 1.6z"/>
        </g>
        <g clip-path="url(#clipPath1388)" opacity="0.3">
          <path fill="#0964af" d="m376.7 295.8 12.2 0 0-1.6-12.2 0 0 1.6z"/>
        </g>
        <g clip-path="url(#clipPath1402)" opacity="0.3">
          <path fill="#0964af" d="m371.1 286.5 34.9 0 0-2-34.9 0 0 2z"/>
        </g>
        <g clip-path="url(#clipPath1416)" opacity="0.3">
          <path fill="#0964af" d="m371.1 283.5 34.9 0 0-2-34.9 0 0 2z"/>
        </g>
        <g clip-path="url(#clipPath1430)" opacity="0.3">
          <path fill="#0964af" d="m376.7 298.2 12.2 0 0-1.6-12.2 0 0 1.6z"/>
        </g>
        <g clip-path="url(#clipPath1444)" opacity="0.3">
          <path fill="#0964af" d="m384.4 300.6 4.5 0 0-1.6-4.5 0 0 1.6z"/>
        </g>
        <g clip-path="url(#clipPath1458)" opacity="0.3">
          <g transform="translate(391.7187,295.5244)">
            <path fill="#0964af" d="m0 0c0-3.9 3.2-7.2 7.2-7.2 4 0 7.2 3.2 7.2 7.2 0 3.9-3.2 7.2-7.2 7.2C3.2 7.2 0 3.9 0 0"/>
          </g>
        </g>
        <g clip-path="url(#clipPath1474)" opacity="0.2">
          <g transform="translate(397.4639,295.417)">
            <path fill="#0964af" d="m0 0c-0.7 0.5-1.2 1.3-1.2 2.2 0 1.4 1.2 2.6 2.6 2.6 1.4 0 2.6-1.2 2.6-2.6C4 1.3 3.5 0.5 2.8 0 4.4-0.4 5.6-1.8 5.6-3.5l0-2.1c-1.2-0.9-2.6-1.4-4.2-1.4-1.6 0-3 0.5-4.2 1.4l0 2.1c0 1.7 1.2 3.1 2.8 3.5"/>
          </g>
        </g>
        <g fill="#ed7f12" transform="translate(369.2046,319.5566)">
          <path fill="#ed7f12" d="m0 0c-1-2.6-3.9-3.8-6.5-2.8-2.6 1-3.8 3.9-2.8 6.5 1 2.6 3.9 3.8 6.5 2.8C-0.2 5.4 1 2.6 0 0"/>
        </g>
        <g fill="#ed7f12" transform="translate(561.9287,360.2183)">
          <path fill="#ed7f12" d="m0 0c1.1-2.5-0.1-5.4-2.6-6.5-2.5-1.1-5.4 0.1-6.5 2.6-1.1 2.5 0.1 5.4 2.6 6.5C-4 3.7-1.1 2.5 0 0"/>
        </g>
        <g transform="translate(625.8809,186.2451)">
          <path fill="#fff" d="m0 0c0-8.5-6.9-15.3-15.3-15.3-8.5 0-15.3 6.9-15.3 15.3 0 8.5 6.9 15.3 15.3 15.3C-6.9 15.3 0 8.5 0 0"/>
        </g>
        <g stroke="#ed7f12" transform="translate(625.8809,186.2451)">
          <path d="m0 0c0-8.5-6.9-15.3-15.3-15.3-8.5 0-15.3 6.9-15.3 15.3 0 8.5 6.9 15.3 15.3 15.3C-6.9 15.3 0 8.5 0 0Z" class="s33"/>
        </g>
        <g stroke="#ed7f12" transform="translate(621.3018,186.2451)">
          <path d="m0 0c0-5.9-4.8-10.7-10.7-10.7-5.9 0-10.7 4.8-10.7 10.7 0 5.9 4.8 10.7 10.7 10.7C-4.8 10.7 0 5.9 0 0Z" class="s33"/>
        </g>
        <g stroke="#ed7f12" transform="translate(616.627,186.2451)">
          <path d="m0 0c0-3.3-2.7-6.1-6.1-6.1-3.3 0-6.1 2.7-6.1 6.1 0 3.3 2.7 6.1 6.1 6.1C-2.7 6.1 0 3.3 0 0Z" class="s33"/>
        </g>
        <g stroke="#ed7f12" transform="translate(613.1377,186.2451)">
          <path d="m0 0c0-1.4-1.2-2.6-2.6-2.6-1.4 0-2.6 1.2-2.6 2.6 0 1.4 1.2 2.6 2.6 2.6C-1.2 2.6 0 1.4 0 0" style="fill:#ed7f12;stroke:#ed7f12"/>
        </g>
        <g stroke="#1c3661" transform="translate(633.4824,205.6758)">
          <path d="m0 0-3.5 0 0 3.5" class="s34"/>
        </g>
        <g stroke="#1c3661" transform="translate(631.7236,203.917)">
          <path d="m0 0-3.5 0 0 3.5" class="s34"/>
        </g>
        <g stroke="#1c3661" transform="translate(629.9395,202.1328)">
          <path d="m0 0-3.5 0 0 3.5" class="s34"/>
        </g>
        <g fill="#ed7f12" transform="translate(290.2505,236.2949)">
          <path fill="#ed7f12" d="m0 0c0-1-0.8-1.8-1.8-1.8-1 0-1.8 0.8-1.8 1.8 0 1 0.8 1.8 1.8 1.8C-0.8 1.8 0 1 0 0"/>
        </g>
        <g fill="#ed7f12" transform="translate(635.3105,276.4922)">
          <path fill="#ed7f12" d="m0 0c0-1-0.8-1.8-1.8-1.8-1 0-1.8 0.8-1.8 1.8 0 1 0.8 1.8 1.8 1.8C-0.8 1.8 0 1 0 0"/>
        </g>
        <g transform="translate(463.4336,345.2544)">
          <path fill="#ed7f12" d="m0 0c0-1-0.8-1.8-1.8-1.8-1 0-1.8 0.8-1.8 1.8 0 1 0.8 1.8 1.8 1.8C-0.8 1.8 0 1 0 0"/>
        </g>
        <g fill="#ed7f12" transform="translate(402.5322,309.9609)">
          <path fill="#ed7f12" d="m0 0c-0.3 0-0.6 0.3-0.6 0.6l0 4.1c0 0.3 0.3 0.6 0.6 0.6 0.3 0 0.6-0.3 0.6-0.6l0-4.1C0.6 0.3 0.3 0 0 0"/>
        </g>
        <g fill="#ed7f12" transform="translate(404.5898,312.0176)">
          <path fill="#ed7f12" d="m0 0-4.1 0c-0.3 0-0.6 0.3-0.6 0.6 0 0.3 0.3 0.6 0.6 0.6L0 1.2C0.3 1.2 0.6 0.9 0.6 0.6 0.6 0.3 0.3 0 0 0"/>
        </g>
        <g transform="translate(301.7847,153.248)">
          <path fill="#fe7d90" d="m0 0c-0.3 0-0.6 0.3-0.6 0.6l0 4.1c0 0.3 0.3 0.6 0.6 0.6 0.3 0 0.6-0.3 0.6-0.6l0-4.1C0.6 0.3 0.3 0 0 0"/>
        </g>
        <g transform="translate(303.8423,155.3047)">
          <path fill="#fe7d90" d="m0 0-4.1 0c-0.3 0-0.6 0.3-0.6 0.6 0 0.3 0.3 0.6 0.6 0.6L0 1.2C0.3 1.2 0.6 0.9 0.6 0.6 0.6 0.3 0.3 0 0 0"/>
        </g>
        <g fill="#ed7f12" transform="translate(650.6006,214.7793)">
          <path fill="#ed7f12" d="m0 0c-0.3 0-0.6 0.3-0.6 0.6l0 4.1c0 0.3 0.3 0.6 0.6 0.6 0.3 0 0.6-0.3 0.6-0.6l0-4.1C0.6 0.3 0.3 0 0 0"/>
        </g>
        <g fill="#ed7f12" transform="translate(652.6572,216.8369)">
          <path fill="#ed7f12" d="m0 0-4.1 0c-0.3 0-0.6 0.3-0.6 0.6 0 0.3 0.3 0.6 0.6 0.6L0 1.2C0.3 1.2 0.6 0.9 0.6 0.6 0.6 0.3 0.3 0 0 0"/>
        </g>
        <g transform="translate(534.3525,355.1987)">
          <path fill="#9bdfff" d="M0 0-25.4 8.5-19.9 24.9 5.5 16.5 0 0Z"/>
        </g>
        <g transform="translate(539.8467,371.6841)">
          <path fill="#9bdfff" d="M0 0-25.4 8.5-9.2 14.6 0 0Z"/>
        </g>
        <g transform="translate(531.9609,356.6841)">
          <path fill="#fff" d="M0 0-20.3 6.8-14.6 23.9 5.7 17.1 0 0Z"/>
        </g>
        <g transform="translate(514.4902,380.1353)">
          <path fill="#c2ebff" d="M0 0-5.5-16.5 9.7-13 0 0Z"/>
        </g>
        <g transform="translate(539.8467,371.6841)">
          <path fill="#c2ebff" d="M0 0-5.5-16.5-15.6-4.6 0 0Z"/>
        </g>
        <g transform="translate(534.3525,355.1987)">
          <path fill="#c2ebff" d="M0 0-25.4 8.5-9.2 14.6 0 0Z"/>
        </g>
        <g transform="translate(508.9961,363.6499)">
          <path fill="#9bdfff" d="m0 0c1.3 0.6 2.6 1.2 3.9 1.8 1.3 0.6 2.7 1.1 4 1.7 2.7 1.1 5.3 2.2 8 3.2L16.4 6.8 16.6 6.5c1.5-2.4 3-4.9 4.5-7.4 0.7-1.2 1.5-2.5 2.2-3.7 0.7-1.3 1.4-2.5 2.1-3.8-0.9 1.2-1.7 2.4-2.5 3.5-0.8 1.2-1.6 2.4-2.4 3.6-1.6 2.4-3.2 4.8-4.7 7.3L16.3 5.7C13.6 4.7 10.9 3.7 8.2 2.7 6.9 2.2 5.5 1.8 4.1 1.3 2.8 0.9 1.4 0.4 0 0"/>
        </g>
        <g class="s36" transform="matrix(0.01080425,0,0,0.01080425,606.33007,180.75683)">
          <g class="s36" transform="translate(467.54739,379.40738)">
            <path d="m0 0c-1.9 3.2-3.5 5.7-5 8.2-8 13.8-15.9 27.6-23.8 41.4-13.3 23-26.6 46-39.9 69-11.4 19.7-23 39.4-34.2 59.3-6.2 11.1-7.4 23.1-4.5 35.5 3.2 13.4 10.9 23.6 22.5 30.6 24.2 14.4 56.1 6.1 69.2-19.3 8.5-16.6 7.8-33.1-1.6-49.3-3.6-6.2-7.1-12.5-10.7-18.7-0.6-1-1.4-2-2.5-3.5-2.7 4.7-5.2 8.9-7.6 13.1-2.6 4.5-5.4 9-7.8 13.6-0.6 1.2-0.4 3.3 0.2 4.6 2.4 5.3 6.3 9.9 6.4 16.4 0.1 7.7-3.1 13.7-9.2 17.7-6.5 4.2-13.6 4.3-20.5 0.6-9.7-5.2-13.2-17.9-7.7-27.5 13-22.5 25.9-45 38.9-67.5 11.6-20.1 23.3-40.2 34.9-60.3 0.9-1.5 1.8-2.9 3.1-4.9 4.7 8.1 8.9 15.5 13.2 22.8 9.4 16.3 18.9 32.5 28.3 48.8 10.6 18.3 21.2 36.7 31.7 55.1 1.6 2.8 3.5 4 6.9 3.9 8.5-0.2 16.9 0 25.4 0 0.9 0 2.1-0.2 2.7-0.8 0.3-0.3-0.1-1.7-0.5-2.5C94.2 162.7 80.6 139.4 67 116 53.1 92 39.2 67.8 25.3 43.8 17.1 29.5 8.9 15.3 0 0" class="s36"/>
          </g>
          <g class="s36" transform="translate(467.54739,379.40738)">
            <path d="m0 0c-1.9 3.2-3.5 5.7-5 8.2-8 13.8-15.9 27.6-23.8 41.4-13.3 23-26.6 46-39.9 69-11.4 19.7-23 39.4-34.2 59.3-6.2 11.1-7.4 23.1-4.5 35.5 3.2 13.4 10.9 23.6 22.5 30.6 24.2 14.4 56.1 6.1 69.2-19.3 8.5-16.6 7.8-33.1-1.6-49.3-3.6-6.2-7.1-12.5-10.7-18.7-0.6-1-1.4-2-2.5-3.5-2.7 4.7-5.2 8.9-7.6 13.1-2.6 4.5-5.4 9-7.8 13.6-0.6 1.2-0.4 3.3 0.2 4.6 2.4 5.3 6.3 9.9 6.4 16.4 0.1 7.7-3.1 13.7-9.2 17.7-6.5 4.2-13.6 4.3-20.5 0.6-9.7-5.2-13.2-17.9-7.7-27.5 13-22.5 25.9-45 38.9-67.5 11.6-20.1 23.3-40.2 34.9-60.3 0.9-1.5 1.8-2.9 3.1-4.9 4.7 8.1 8.9 15.5 13.2 22.8 9.4 16.3 18.9 32.5 28.3 48.8 10.6 18.3 21.2 36.7 31.7 55.1 1.6 2.8 3.5 4 6.9 3.9 8.5-0.2 16.9 0 25.4 0 0.9 0 2.1-0.2 2.7-0.8 0.3-0.3-0.1-1.7-0.5-2.5C94.2 162.7 80.6 139.4 67 116 53.1 92 39.2 67.8 25.3 43.8 17.1 29.5 8.9 15.3 0 0Z" class="s37"/>
          </g>
          <g class="s36" transform="translate(378.79889,489.25458)">
            <path d="m0 0c3.8-6.6 7.3-12.6 10.8-18.6 1.1-2 2.2-4 3.5-5.8 2.3-3.1 2-5.7 0-9-13.5-23-26.9-46.1-40.3-69.1-0.9-1.6-1.6-3.2-2.5-4.8-0.4-0.6-1.1-1.3-1.6-1.3-0.6 0-1.3 0.8-1.6 1.4-8.1 14-16.1 28-24.2 42.1-12.8 22.2-25.6 44.4-38.5 66.6-14.4 24.9-28.9 49.8-43.3 74.8-0.5 0.8-0.6 2-0.4 2.8 0.1 0.4 1.5 0.6 2.4 0.6 8.7 0 17.4-0.1 26.1 0 2.9 0 4.6-1 6.1-3.5 12.6-22.1 25.3-44.1 38-66.1 10.8-18.7 21.7-37.5 32.6-56.2 2.9-4.9 3-5 5.8-0.1 8.3 14.3 16.4 28.7 24.7 43C-2-2.4-1.2-1.6 0 0" class="s36"/>
          </g>
        </g>
        <g stroke="#1c3661" transform="translate(611.69921,187.62351)">
          <path d="M0 0 19.7 19.7" class="s34"/>
        </g>
        <g stroke="#1c3661" transform="translate(615.08201,187.52)">
          <path d="m0 0-3.5 0 0 3.5" class="s34"/>
        </g>
        <g class="s36" transform="matrix(0.01704141,0,0,0.01704141,550.49602,349.70434)">
          <g class="s36" transform="translate(467.54739,379.40738)">
            <path d="m0 0c-1.9 3.2-3.5 5.7-5 8.2-8 13.8-15.9 27.6-23.8 41.4-13.3 23-26.6 46-39.9 69-11.4 19.7-23 39.4-34.2 59.3-6.2 11.1-7.4 23.1-4.5 35.5 3.2 13.4 10.9 23.6 22.5 30.6 24.2 14.4 56.1 6.1 69.2-19.3 8.5-16.6 7.8-33.1-1.6-49.3-3.6-6.2-7.1-12.5-10.7-18.7-0.6-1-1.4-2-2.5-3.5-2.7 4.7-5.2 8.9-7.6 13.1-2.6 4.5-5.4 9-7.8 13.6-0.6 1.2-0.4 3.3 0.2 4.6 2.4 5.3 6.3 9.9 6.4 16.4 0.1 7.7-3.1 13.7-9.2 17.7-6.5 4.2-13.6 4.3-20.5 0.6-9.7-5.2-13.2-17.9-7.7-27.5 13-22.5 25.9-45 38.9-67.5 11.6-20.1 23.3-40.2 34.9-60.3 0.9-1.5 1.8-2.9 3.1-4.9 4.7 8.1 8.9 15.5 13.2 22.8 9.4 16.3 18.9 32.5 28.3 48.8 10.6 18.3 21.2 36.7 31.7 55.1 1.6 2.8 3.5 4 6.9 3.9 8.5-0.2 16.9 0 25.4 0 0.9 0 2.1-0.2 2.7-0.8 0.3-0.3-0.1-1.7-0.5-2.5C94.2 162.7 80.6 139.4 67 116 53.1 92 39.2 67.8 25.3 43.8 17.1 29.5 8.9 15.3 0 0" class="s36"/>
          </g>
          <g class="s36" transform="translate(467.54739,379.40738)">
            <path d="m0 0c-1.9 3.2-3.5 5.7-5 8.2-8 13.8-15.9 27.6-23.8 41.4-13.3 23-26.6 46-39.9 69-11.4 19.7-23 39.4-34.2 59.3-6.2 11.1-7.4 23.1-4.5 35.5 3.2 13.4 10.9 23.6 22.5 30.6 24.2 14.4 56.1 6.1 69.2-19.3 8.5-16.6 7.8-33.1-1.6-49.3-3.6-6.2-7.1-12.5-10.7-18.7-0.6-1-1.4-2-2.5-3.5-2.7 4.7-5.2 8.9-7.6 13.1-2.6 4.5-5.4 9-7.8 13.6-0.6 1.2-0.4 3.3 0.2 4.6 2.4 5.3 6.3 9.9 6.4 16.4 0.1 7.7-3.1 13.7-9.2 17.7-6.5 4.2-13.6 4.3-20.5 0.6-9.7-5.2-13.2-17.9-7.7-27.5 13-22.5 25.9-45 38.9-67.5 11.6-20.1 23.3-40.2 34.9-60.3 0.9-1.5 1.8-2.9 3.1-4.9 4.7 8.1 8.9 15.5 13.2 22.8 9.4 16.3 18.9 32.5 28.3 48.8 10.6 18.3 21.2 36.7 31.7 55.1 1.6 2.8 3.5 4 6.9 3.9 8.5-0.2 16.9 0 25.4 0 0.9 0 2.1-0.2 2.7-0.8 0.3-0.3-0.1-1.7-0.5-2.5C94.2 162.7 80.6 139.4 67 116 53.1 92 39.2 67.8 25.3 43.8 17.1 29.5 8.9 15.3 0 0Z" class="s37"/>
          </g>
          <g class="s36" transform="translate(378.79889,489.25458)">
            <path d="m0 0c3.8-6.6 7.3-12.6 10.8-18.6 1.1-2 2.2-4 3.5-5.8 2.3-3.1 2-5.7 0-9-13.5-23-26.9-46.1-40.3-69.1-0.9-1.6-1.6-3.2-2.5-4.8-0.4-0.6-1.1-1.3-1.6-1.3-0.6 0-1.3 0.8-1.6 1.4-8.1 14-16.1 28-24.2 42.1-12.8 22.2-25.6 44.4-38.5 66.6-14.4 24.9-28.9 49.8-43.3 74.8-0.5 0.8-0.6 2-0.4 2.8 0.1 0.4 1.5 0.6 2.4 0.6 8.7 0 17.4-0.1 26.1 0 2.9 0 4.6-1 6.1-3.5 12.6-22.1 25.3-44.1 38-66.1 10.8-18.7 21.7-37.5 32.6-56.2 2.9-4.9 3-5 5.8-0.1 8.3 14.3 16.4 28.7 24.7 43C-2-2.4-1.2-1.6 0 0" class="s36"/>
          </g>
        </g>
        <g class="s36" transform="matrix(0.01244734,0,0,0.01244734,359.34502,315.02534)">
          <g class="s36" transform="translate(467.54739,379.40738)">
            <path d="m0 0c-1.9 3.2-3.5 5.7-5 8.2-8 13.8-15.9 27.6-23.8 41.4-13.3 23-26.6 46-39.9 69-11.4 19.7-23 39.4-34.2 59.3-6.2 11.1-7.4 23.1-4.5 35.5 3.2 13.4 10.9 23.6 22.5 30.6 24.2 14.4 56.1 6.1 69.2-19.3 8.5-16.6 7.8-33.1-1.6-49.3-3.6-6.2-7.1-12.5-10.7-18.7-0.6-1-1.4-2-2.5-3.5-2.7 4.7-5.2 8.9-7.6 13.1-2.6 4.5-5.4 9-7.8 13.6-0.6 1.2-0.4 3.3 0.2 4.6 2.4 5.3 6.3 9.9 6.4 16.4 0.1 7.7-3.1 13.7-9.2 17.7-6.5 4.2-13.6 4.3-20.5 0.6-9.7-5.2-13.2-17.9-7.7-27.5 13-22.5 25.9-45 38.9-67.5 11.6-20.1 23.3-40.2 34.9-60.3 0.9-1.5 1.8-2.9 3.1-4.9 4.7 8.1 8.9 15.5 13.2 22.8 9.4 16.3 18.9 32.5 28.3 48.8 10.6 18.3 21.2 36.7 31.7 55.1 1.6 2.8 3.5 4 6.9 3.9 8.5-0.2 16.9 0 25.4 0 0.9 0 2.1-0.2 2.7-0.8 0.3-0.3-0.1-1.7-0.5-2.5C94.2 162.7 80.6 139.4 67 116 53.1 92 39.2 67.8 25.3 43.8 17.1 29.5 8.9 15.3 0 0" class="s36"/>
          </g>
          <g class="s36" transform="translate(467.54739,379.40738)">
            <path d="m0 0c-1.9 3.2-3.5 5.7-5 8.2-8 13.8-15.9 27.6-23.8 41.4-13.3 23-26.6 46-39.9 69-11.4 19.7-23 39.4-34.2 59.3-6.2 11.1-7.4 23.1-4.5 35.5 3.2 13.4 10.9 23.6 22.5 30.6 24.2 14.4 56.1 6.1 69.2-19.3 8.5-16.6 7.8-33.1-1.6-49.3-3.6-6.2-7.1-12.5-10.7-18.7-0.6-1-1.4-2-2.5-3.5-2.7 4.7-5.2 8.9-7.6 13.1-2.6 4.5-5.4 9-7.8 13.6-0.6 1.2-0.4 3.3 0.2 4.6 2.4 5.3 6.3 9.9 6.4 16.4 0.1 7.7-3.1 13.7-9.2 17.7-6.5 4.2-13.6 4.3-20.5 0.6-9.7-5.2-13.2-17.9-7.7-27.5 13-22.5 25.9-45 38.9-67.5 11.6-20.1 23.3-40.2 34.9-60.3 0.9-1.5 1.8-2.9 3.1-4.9 4.7 8.1 8.9 15.5 13.2 22.8 9.4 16.3 18.9 32.5 28.3 48.8 10.6 18.3 21.2 36.7 31.7 55.1 1.6 2.8 3.5 4 6.9 3.9 8.5-0.2 16.9 0 25.4 0 0.9 0 2.1-0.2 2.7-0.8 0.3-0.3-0.1-1.7-0.5-2.5C94.2 162.7 80.6 139.4 67 116 53.1 92 39.2 67.8 25.3 43.8 17.1 29.5 8.9 15.3 0 0Z" class="s37"/>
          </g>
          <g class="s36" transform="translate(378.79889,489.25458)">
            <path d="m0 0c3.8-6.6 7.3-12.6 10.8-18.6 1.1-2 2.2-4 3.5-5.8 2.3-3.1 2-5.7 0-9-13.5-23-26.9-46.1-40.3-69.1-0.9-1.6-1.6-3.2-2.5-4.8-0.4-0.6-1.1-1.3-1.6-1.3-0.6 0-1.3 0.8-1.6 1.4-8.1 14-16.1 28-24.2 42.1-12.8 22.2-25.6 44.4-38.5 66.6-14.4 24.9-28.9 49.8-43.3 74.8-0.5 0.8-0.6 2-0.4 2.8 0.1 0.4 1.5 0.6 2.4 0.6 8.7 0 17.4-0.1 26.1 0 2.9 0 4.6-1 6.1-3.5 12.6-22.1 25.3-44.1 38-66.1 10.8-18.7 21.7-37.5 32.6-56.2 2.9-4.9 3-5 5.8-0.1 8.3 14.3 16.4 28.7 24.7 43C-2-2.4-1.2-1.6 0 0" class="s36"/>
          </g>
        </g>
      </g>
    </g>
  </g>
</svg>
