<svg version="1" xmlns="http://www.w3.org/2000/svg" width="1010.667" height="1010.667" viewBox="0 0 758.000000 758.000000"><path d="M275.7 15.6c-.1.1-3.4.5-7.2.8-44.4 3.5-84.4 39.6-95.6 86-2.7 11.4-3.4 18.3-3.2 31.8 0 6.5-.1 11.8-.4 11.8-.3 0-1.7-.9-3.2-1.9-4.9-3.5-16.4-8.8-24.6-11.4-38.5-12-78.3-1.9-107.4 27.3-28.5 28.7-40.2 73-30 113.3 7.9 31.4 27.3 56.9 54.9 72.6 8.3 4.8 13 7.4 24 13.4 3 1.7 7.2 4.1 9.2 5.4 2.1 1.3 4 2.3 4.2 2.3.3 0 2.7 1.3 5.4 2.9 2.7 1.6 8.7 4.9 13.3 7.4 4.6 2.5 22.8 12.6 40.4 22.5l32 17.8.1 31c.2 32 .5 34.9 4.6 40.6 3.2 4.6 5.5 6.5 11.3 9.3l5 2.5 171.5-.3 171.5-.2 4.7-2.7c6.1-3.7 10.2-8.7 12.3-15.4 1.4-4.6 1.7-10.2 1.9-35.1l.1-29.6 15.5-8.6c8.5-4.8 35.8-20 60.5-33.8 24.8-13.8 46.8-26.1 49-27.3 2.2-1.3 4.9-2.8 6-3.4 17.8-9.8 34.5-28.1 44.5-49.1 8.9-18.7 11.6-31.3 11.4-54.5-.4-63-50.1-114-110.3-113.2-20 .2-40.4 6.4-57 17.4-1.9 1.2-3.1 1.7-2.7 1 .9-1.6 1.1-17.7.2-25.7-1-8.7-3.4-18.9-6.8-28.1-2.6-7.3-3.9-10.1-10.2-21.5-3.2-5.7-11.5-16.1-18.7-23-16.1-15.6-36-25.3-58.9-28.8-8.1-1.3-28.5-.5-36.5 1.3-31.6 7.4-58.2 28-73.2 56.8l-3.9 7.5-4.4-8.5c-16.8-32.9-50.5-56.7-84.7-59.7-10.1-.9-14.3-1.2-14.6-.9zM286 36.3c34.9 2.3 66.1 28.6 78.1 66.1 4.2 12.9 4.5 20.2 4.4 128.1v102.9l-7.5 2.9c-4.1 1.5-11.8 4.3-17 6.3-5.2 1.9-10.4 3.8-11.5 4.3-1.1.5-6 2.4-11 4.1-4.9 1.8-11.1 4.1-13.7 5.1l-4.7 1.8-3.4-6.2c-1.9-3.4-4.7-8.5-6.3-11.2-1.5-2.8-10.8-19.2-20.7-36.5-9.9-17.3-18.9-33.1-20-35-1.1-1.9-5.4-9.6-9.7-17-4.3-7.4-8.6-15.1-9.7-17-1.1-1.9-9.3-16.2-18.2-31.8-19.6-34.3-21.6-39-24.4-56.2-6.6-42 14.4-84.1 50.8-102 10.5-5.2 18.6-7.6 28.2-8.6 3.2-.4 5.9-.8 6.1-.9.2-.2 1.1-.1 2 .1.9.2 4.6.5 8.2.7zm210 3.5c43 10.3 72.4 48.9 72.1 94.8-.1 7.2-.4 10.7-1.6 17.9-1 6-4 15.7-6.4 20.5-1.5 3-16 28.7-32.2 57-16.3 28.3-39.4 68.7-51.3 89.8-12 21.1-22.1 38.2-22.6 38-.4-.2-15.2-5.7-32.9-12.3l-32.2-12 .4-107.5c.3-107.2.3-107.5 2.5-115.5 4.4-15.8 9.1-25.6 17.9-37.3 13.1-17.1 31.6-29 52.3-33.2 9.4-1.9 26.2-2 34-.2zM120.5 148.5c23.4 2.9 47.3 17.7 61.2 38 1.9 2.8 57.9 100.5 65.3 114 1.8 3.3 4.1 7.2 5.1 8.7 1.1 1.4 1.9 2.9 1.9 3.2 0 .3 1.3 2.7 2.9 5.4 1.5 2.6 3.9 6.8 5.3 9.3 1.4 2.4 6.6 11.7 11.6 20.5 5.1 8.9 9.2 16.6 9.2 17 0 .5-7.6 3.7-16.8 7.1-9.2 3.4-29 10.8-44.1 16.4l-27.4 10.1-4.1-2c-2.3-1.2-6.8-3.6-10.1-5.5-3.3-1.8-25.8-14.4-50-27.9C63.6 325.5 62.7 325 59 322.2c-16.2-12.1-28.6-30.3-34.4-50.4-3.1-10.6-3.7-15-4-25.8-1.6-58 45.8-104.2 99.9-97.5zm538.3-.1c17.9 2.1 37.5 12 51.1 25.9 17.6 18.1 27.1 41.2 27.4 66.7.2 13.8-.3 18.6-2.7 27.5-7 26.8-23.2 47.8-47.1 61-24.8 13.8-90.6 50.4-108.4 60.4-7.9 4.5-15 8.1-15.7 8.1-1.2 0-60.7-21.7-65.9-24.1-1.1-.4-6.5-2.5-12-4.5s-10.1-3.8-10.3-3.9c-.4-.3 19.6-35.5 67.1-118.5 39.9-69.6 41.6-72.1 54.6-81.8 18.2-13.6 39.5-19.4 61.9-16.8zM394 358c1.4.4 13.1 4.9 26 10 25.4 9.9 34.3 13.3 49 18.7 5.2 1.9 10.9 4.1 12.5 4.8 1.7.7 12.7 5 24.5 9.4 11.8 4.5 22.4 8.6 23.5 9.1 1.1.5 6.2 2.4 11.2 4.2l9.3 3.3.1 7c0 3.8 0 17.1.1 29.3 0 21.9-.1 22.4-2.3 24.8l-2.2 2.4H211.9l-2.2-2.4c-2.3-2.4-2.3-2.7-2.1-31.1 0-15.7.5-28.9 1-29.4 1.3-1.1 4.6-2.3 44.9-17.6 19.8-7.5 36.9-14 38-14.5 1.1-.5 5.4-2.1 9.5-3.6s9.3-3.5 11.5-4.5c2.2-.9 9.6-3.8 16.5-6.4 6.9-2.6 13.4-5.1 14.5-5.6 1.1-.5 9.6-3.8 18.9-7.3l16.9-6.3 6.1 2.4c3.3 1.4 7.2 2.8 8.6 3.3zM237.7 539.6c-.1.1-3.3.4-7 .8-13.2 1.2-24.7 6.6-32.5 15-14.4 15.6-13.8 41.2 1.2 53.8 5.7 4.7 17.7 9.4 38.6 14.9 11.4 3 19.5 7.2 21.4 11.3 2.8 5.8.4 11.5-6 14.7-3.2 1.5-6.6 2.1-13.1 2.3-14.1.4-21.1-1.7-36.1-10.5-6.8-4-13.4-2.1-17.6 5-6.3 10.8-1.8 19.4 13.9 26.6 12 5.5 20 7 38 7 10.2 0 18-.5 21.5-1.4 24.1-6 36.5-21.1 35.5-43.1-.4-8.4-1.8-13.1-5.6-18.6-7.5-11-16.5-15.5-45.1-22.8-17.8-4.5-23-7.8-22.2-14.1.6-4.6 3.5-7.8 9.5-10.2 8.2-3.4 19.5-2.6 32 2.2 13 5 16.4 5.1 21 .2 6-6.3 8.2-13.7 5.4-18.4-4.5-7.7-22.2-13.6-43.8-14.5-4.8-.2-8.9-.3-9-.2zM324.9 540.4c-5.9 1.5-13 5.7-16.3 9.7-2.5 2.9-3.1 5.1-2.6 9.3.1 1 9.1 19.7 19.9 41.5 10.9 21.8 22.9 46 26.8 53.8l7 14.2-.9 5.7c-3.1 19.7-19.2 33.9-40.7 35.8-3.8.4-7.2 1.3-8.2 2.2-4.1 3.7-5.6 17.1-2.6 23 1.5 2.8 3.1 3.9 9.2 5.9 1.1.3 5.4.6 9.5.6 19.6-.1 34.9-5.6 46.7-17 6-5.7 14.3-19 18.3-29 1.1-3 2.9-7.3 3.9-9.5.9-2.3 2.6-6.1 3.6-8.6s2.4-6 3.3-7.9c.8-1.9 11.3-27.1 23.4-56 14.4-34.4 22-53.9 22.1-56.3.2-6.6-6.1-12.5-17.6-16.6-8-2.8-15.1-2-18.5 2.1-1 1.1-12.5 32.9-13.7 37.7-.2.8-4.2 12.5-8.8 26l-8.5 24.5-1.5-3.5c-.8-1.9-8.1-19-16.1-38-20.1-47.1-20.3-47.5-23.4-49-3.7-1.8-8.8-2-14.3-.6zM531.7 540.8c-9.7 2.4-19.4 9.4-27 19.2l-2.7 3.5.1-4.5c.3-10.4-.5-12.1-7.1-15.6-2.6-1.3-5.5-1.8-11-1.7-8.5.1-14.1 2.2-17.3 6.5-1.9 2.5-1.9 4.5-1.9 61.9v59.2l3.5 3.5c6.2 6.2 19.3 7.5 28.6 2.9 8-4 8-3.9 8-38.1 0-24 .3-31.3 1.6-35.9 3.3-12.5 12.6-23.3 23.6-27.3 2.6-.9 8.4-1.7 14.1-1.9 7.9-.2 10.2-.6 12.6-2.3 5-3.6 6.6-7 6.6-14.2.1-7.4-2.2-11.8-7.6-14.6-3.9-2-17.4-2.4-24.1-.6z"/></svg>