<svg xmlns="http://www.w3.org/2000/svg" viewBox="0 0 512 341.3333333333333" preserveAspectRatio="xMidYMid slice">
  <defs>
    <filter id="b">
      <feGaussianBlur stdDeviation="8"/>
    </filter>
  </defs>
  <g filter="url(#b)">
    <!-- <rect width="128" height="64" x="0" y="0" fill="rgb(123, 108, 85)"/>
    <path fill="rgb(60, 34, 4)" fill-opacity="0.73" d="M-6,22L138,22L138,67L-6,67Z"/>
    <path fill="rgb(233, 227, 208)" fill-opacity="0.75" d="M-4,1L131,1L131,15L-4,15Z"/>
    <ellipse cx="25" cy="11" fill="rgb(186, 197, 195)" fill-opacity="0.41" rx="21" ry="15"/>
    <path fill="rgb(204, 131, 37)" fill-opacity="0.23" d="M5,40L87,40L87,83L5,83Z"/>
    <ellipse cx="116" cy="52" fill="rgb(23, 17, 7)" fill-opacity="0.56" rx="25" ry="24"/>
    <path fill="rgb(221, 210, 189)" fill-opacity="0.99" d="M25,-4L132,-4L132,12L25,12Z"/>
    <path fill="rgb(41, 52, 55)" fill-opacity="0.44" d="M34,18L133,18L133,32L34,32Z"/>
    <ellipse cx="124" cy="18" fill="rgb(95, 130, 132)" fill-opacity="0.52" rx="34" ry="6"/>
    <ellipse cx="6" cy="8" fill="rgb(114, 116, 110)" fill-opacity="0.40" rx="12" ry="20"/>
    <ellipse cx="76" cy="55" fill="rgb(155, 106, 41)" fill-opacity="0.44" rx="17" ry="9"/>
    <ellipse cx="71" cy="19" fill="rgb(34, 40, 40)" fill-opacity="0.30" rx="21" ry="7"/>
    <ellipse cx="5" cy="36" fill="rgb(0, 3, 4)" fill-opacity="0.46" rx="22" ry="4"/>
    <ellipse cx="95" cy="48" fill="rgb(74, 43, 11)" fill-opacity="0.44" rx="18" ry="16"/>
    <ellipse cx="27" cy="13" fill="rgb(214, 217, 203)" fill-opacity="0.47" rx="26" ry="4"/>
    <ellipse cx="127" cy="3" fill="rgb(131, 103, 59)" fill-opacity="0.21" rx="13" ry="12"/>
    <path fill="rgb(97, 126, 127)" fill-opacity="0.49" d="M14,27L63,18L-24,15Z"/>
    <path fill="rgb(63, 38, 15)" fill-opacity="0.70" d="M49,21L88,21L88,43L49,43Z"/>
    <ellipse cx="123" cy="46" fill="rgb(0, 10, 5)" fill-opacity="0.51" rx="10" ry="8"/>
    <ellipse cx="56" cy="67" fill="rgb(0, 0, 15)" fill-opacity="0.43" rx="5" ry="13"/>
    <path fill="rgb(122, 143, 141)" fill-opacity="0.60" d="M42,14L122,14L122,17L42,17Z"/>
    <path fill="rgb(203, 141, 63)" fill-opacity="0.45" d="M47,43L36,45L38,39Z"/>
    <path fill="rgb(65, 40, 2)" fill-opacity="0.46" d="M29,57L34,46L-25,36Z"/>
    <ellipse cx="125" cy="25" fill="rgb(64, 77, 76)" fill-opacity="0.47" rx="32" ry="6"/>
    <path fill="rgb(160, 112, 53)" fill-opacity="0.51" d="M44,63L35,67L18,54Z"/>
    <ellipse cx="-1" cy="68" fill="rgb(146, 88, 35)" fill-opacity="0.52" rx="12" ry="11"/>
    <path fill="rgb(160, 121, 78)" fill-opacity="0.44" d="M65,61L67,57L34,38Z"/>
    <path fill="rgb(241, 185, 119)" fill-opacity="0.37" d="M65,47L74,47L74,51L65,51Z"/>
    <ellipse cx="8" cy="2" fill="rgb(146, 122, 102)" fill-opacity="0.41" rx="25" ry="2"/>
    <path fill="rgb(36, 23, 0)" fill-opacity="0.46" d="M25,60L26,79L7,59Z"/>
    <ellipse cx="57" cy="8" fill="rgb(243, 227, 204)" fill-opacity="0.38" rx="50" ry="3"/>
    <ellipse cx="3" cy="26" fill="rgb(23, 36, 40)" fill-opacity="0.48" rx="4" ry="10"/>
    <path fill="rgb(65, 44, 26)" fill-opacity="0.71" d="M7,26L64,26L64,34L7,34Z"/> -->
  <!-- <svg xmlns="http://www.w3.org/2000/svg" viewBox="0 0 512 341.3333333333333" clip-path="url(#clip)" width="1346" height="897.3333333333333"> -->
<rect x="0" y="0" width="512" height="341.3333333333333" fill="rgb(183, 183, 181)"/><path d="M214,200L115,277L362,282Z" fill="rgb(58, 29, 15)" fill-opacity="0.83"/><path d="M20,422L-45,106L211,106Z" fill="rgb(109, 78, 15)" fill-opacity="0.60"/><path d="M464,403L432,203L500,203Z" fill="rgb(6, 24, 0)" fill-opacity="0.52"/><path d="M577,302L479,322L489,253Z" fill="rgb(64, 94, 32)" fill-opacity="0.77"/><path d="M215,110L264,40L378,161Z" fill="rgb(83, 59, 51)" fill-opacity="0.73"/><path d="M172,242L20,314L-9,207Z" fill="rgb(214, 154, 9)" fill-opacity="0.92"/><path d="M352,167L320,197L308,123Z" fill="rgb(60, 49, 47)" fill-opacity="0.70"/><path d="M335,207L288,259L409,359Z" fill="rgb(190, 149, 116)" fill-opacity="0.72"/><path d="M445,226L388,179L432,479Z" fill="rgb(229, 229, 227)" fill-opacity="0.76"/><path d="M358,97L323,107L330,183Z" fill="rgb(50, 50, 54)" fill-opacity="0.81"/><path d="M131,289L79,321L7,304Z" fill="rgb(204, 216, 228)" fill-opacity="0.79"/><path d="M269,240L271,209L201,207Z" fill="rgb(229, 72, 0)" fill-opacity="0.72"/><path d="M265,-76L295,107L580,22Z" fill="rgb(228, 232, 237)" fill-opacity="0.71"/><path d="M181,291L110,229L196,224Z" fill="rgb(11, 21, 29)" fill-opacity="0.70"/><path d="M488,312L484,377L435,314Z" fill="rgb(183, 189, 197)" fill-opacity="0.74"/><path d="M478,53L449,61L409,53Z" fill="rgb(73, 69, 77)" fill-opacity="0.66"/><path d="M208,110L246,82L242,125Z" fill="rgb(0, 0, 0)" fill-opacity="0.51"/><path d="M299,112L284,133L317,172Z" fill="rgb(255, 255, 255)" fill-opacity="0.48"/><path d="M217,208L209,197L242,210Z" fill="rgb(255, 255, 229)" fill-opacity="0.46"/><path d="M424,169L508,165L418,150Z" fill="rgb(0, 11, 51)" fill-opacity="0.49"/><path d="M37,233L54,188L26,185Z" fill="rgb(24, 20, 26)" fill-opacity="0.80"/><path d="M465,246L479,314L441,278Z" fill="rgb(0, 8, 0)" fill-opacity="0.64"/><path d="M114,215L139,279L88,298Z" fill="rgb(254, 206, 0)" fill-opacity="0.76"/><path d="M219,107L111,184L-51,106Z" fill="rgb(11, 44, 106)" fill-opacity="0.46"/><path d="M244,275L271,222L292,237Z" fill="rgb(23, 12, 14)" fill-opacity="0.57"/><path d="M289,226L333,216L291,254Z" fill="rgb(251, 248, 255)" fill-opacity="0.51"/><path d="M235,76L291,57L261,42Z" fill="rgb(0, 0, 0)" fill-opacity="0.58"/><path d="M402,216L433,200L443,211Z" fill="rgb(82, 32, 6)" fill-opacity="0.44"/><path d="M118,190L170,223L109,227Z" fill="rgb(206, 228, 255)" fill-opacity="0.56"/><path d="M452,238L470,249L506,238Z" fill="rgb(255, 255, 255)" fill-opacity="0.45"/><path d="M438,51L398,51L395,79Z" fill="rgb(84, 85, 88)" fill-opacity="0.39"/><path d="M155,296L258,218L117,281Z" fill="rgb(9, 3, 13)" fill-opacity="0.35"/><path d="M346,217L446,232L442,210Z" fill="rgb(224, 163, 117)" fill-opacity="0.55"/><path d="M139,142L196,236L233,155Z" fill="rgb(159, 147, 146)" fill-opacity="0.89"/><path d="M286,62L275,102L240,82Z" fill="rgb(255, 166, 120)" fill-opacity="0.50"/><path d="M209,111L166,151L335,200Z" fill="rgb(217, 210, 208)" fill-opacity="0.62"/><path d="M295,193L300,226L218,234Z" fill="rgb(240, 83, 0)" fill-opacity="0.39"/><path d="M298,104L260,118L288,77Z" fill="rgb(9, 1, 0)" fill-opacity="0.65"/><path d="M443,282L489,258L445,321Z" fill="rgb(13, 51, 0)" fill-opacity="0.56"/><path d="M91,286L82,213L49,219Z" fill="rgb(253, 215, 18)" fill-opacity="0.72"/><path d="M497,47L498,124L553,133Z" fill="rgb(53, 79, 134)" fill-opacity="0.48"/><path d="M28,333L47,324L-58,275Z" fill="rgb(18, 5, 23)" fill-opacity="0.60"/><path d="M125,182L70,170L86,241Z" fill="rgb(123, 130, 169)" fill-opacity="0.65"/><path d="M198,206L111,222L220,226Z" fill="rgb(224, 238, 251)" fill-opacity="0.54"/><path d="M21,238L48,231L80,178Z" fill="rgb(115, 72, 44)" fill-opacity="0.69"/><path d="M336,231L313,189L401,238Z" fill="rgb(221, 218, 214)" fill-opacity="0.66"/><path d="M245,78L257,63L287,77Z" fill="rgb(236, 147, 94)" fill-opacity="0.53"/><path d="M309,36L9,-251L-4,108Z" fill="rgb(221, 228, 235)" fill-opacity="0.75"/><path d="M41,101L230,96L282,-33Z" fill="rgb(215, 221, 225)" fill-opacity="0.83"/><path d="M72,285L84,276L92,295Z" fill="rgb(39, 8, 0)" fill-opacity="0.81"/><path d="M9,199L14,197L13,141Z" fill="rgb(187, 212, 253)" fill-opacity="0.57"/><path d="M540,179L516,208L359,183Z" fill="rgb(242, 249, 255)" fill-opacity="0.62"/><path d="M40,322L44,292L4,306Z" fill="rgb(114, 112, 148)" fill-opacity="0.43"/><path d="M96,227L100,192L109,225Z" fill="rgb(22, 0, 2)" fill-opacity="0.54"/><path d="M18,191L47,136L26,212Z" fill="rgb(163, 192, 254)" fill-opacity="0.37"/><path d="M362,298L402,336L346,318Z" fill="rgb(95, 75, 60)" fill-opacity="0.53"/><path d="M326,198L342,180L325,180Z" fill="rgb(44, 26, 12)" fill-opacity="0.55"/><path d="M246,200L307,206L245,160Z" fill="rgb(227, 230, 236)" fill-opacity="0.46"/><path d="M507,58L388,74L493,76Z" fill="rgb(231, 238, 245)" fill-opacity="0.66"/><path d="M46,155L81,157L52,178Z" fill="rgb(9, 4, 2)" fill-opacity="0.51"/><path d="M329,322L364,317L294,305Z" fill="rgb(92, 46, 17)" fill-opacity="0.39"/><path d="M208,282L307,335L271,277Z" fill="rgb(235, 209, 182)" fill-opacity="0.50"/><path d="M364,286L315,284L338,314Z" fill="rgb(219, 224, 223)" fill-opacity="0.61"/><path d="M350,137L448,142L374,185Z" fill="rgb(234, 245, 255)" fill-opacity="0.51"/><path d="M123,334L5,327L-16,408Z" fill="rgb(200, 210, 250)" fill-opacity="0.35"/><path d="M289,254L329,227L363,240Z" fill="rgb(223, 92, 0)" fill-opacity="0.34"/><path d="M396,69L347,96L396,149Z" fill="rgb(240, 246, 254)" fill-opacity="0.49"/><path d="M-77,119L10,134L10,195Z" fill="rgb(33, 60, 102)" fill-opacity="0.59"/><path d="M308,284L313,268L365,283Z" fill="rgb(159, 75, 4)" fill-opacity="0.69"/><path d="M398,180L415,176L444,177Z" fill="rgb(32, 14, 14)" fill-opacity="0.47"/><path d="M375,215L411,227L363,220Z" fill="rgb(148, 63, 0)" fill-opacity="0.50"/><path d="M276,82L245,80L254,148Z" fill="rgb(216, 106, 56)" fill-opacity="0.45"/><path d="M21,330L99,328L119,310Z" fill="rgb(51, 62, 89)" fill-opacity="0.50"/><path d="M255,107L267,106L271,77Z" fill="rgb(237, 184, 166)" fill-opacity="0.67"/><path d="M-5,217L-2,307L29,229Z" fill="rgb(202, 56, 0)" fill-opacity="0.62"/><path d="M400,233L441,315L442,216Z" fill="rgb(233, 244, 250)" fill-opacity="0.67"/><path d="M302,252L191,224L188,287Z" fill="rgb(2, 14, 22)" fill-opacity="0.52"/><path d="M489,86L410,72L409,122Z" fill="rgb(105, 128, 156)" fill-opacity="0.49"/><path d="M254,280L337,317L308,277Z" fill="rgb(208, 181, 154)" fill-opacity="0.51"/><path d="M20,147L51,149L32,180Z" fill="rgb(172, 185, 200)" fill-opacity="0.52"/><path d="M497,221L460,240L437,224Z" fill="rgb(20, 0, 43)" fill-opacity="0.47"/><path d="M238,74L228,130L253,57Z" fill="rgb(0, 0, 0)" fill-opacity="0.49"/><path d="M196,145L94,208L221,208Z" fill="rgb(120, 112, 119)" fill-opacity="0.60"/><path d="M442,302L477,311L473,257Z" fill="rgb(15, 43, 3)" fill-opacity="0.71"/><path d="M521,140L531,180L443,141Z" fill="rgb(236, 246, 255)" fill-opacity="0.70"/><path d="M85,296L7,293L12,257Z" fill="rgb(253, 196, 0)" fill-opacity="0.75"/><path d="M277,133L282,140L296,103Z" fill="rgb(38, 21, 22)" fill-opacity="0.52"/><path d="M479,129L383,116L501,116Z" fill="rgb(242, 250, 255)" fill-opacity="0.67"/><path d="M157,196L106,192L150,106Z" fill="rgb(89, 94, 105)" fill-opacity="0.75"/><path d="M307,244L320,210L293,153Z" fill="rgb(243, 241, 242)" fill-opacity="0.63"/><path d="M97,227L85,240L78,218Z" fill="rgb(35, 55, 85)" fill-opacity="0.50"/><path d="M443,268L451,281L450,229Z" fill="rgb(9, 32, 0)" fill-opacity="0.55"/><path d="M511,318L462,306L486,296Z" fill="rgb(0, 18, 8)" fill-opacity="0.69"/><path d="M286,183L292,167L292,187Z" fill="rgb(78, 84, 95)" fill-opacity="0.53"/><path d="M76,224L115,176L75,175Z" fill="rgb(190, 194, 202)" fill-opacity="0.43"/><path d="M309,192L308,167L318,200Z" fill="rgb(130, 70, 46)" fill-opacity="0.37"/><path d="M252,158L281,159L278,100Z" fill="rgb(239, 247, 255)" fill-opacity="0.40"/><path d="M476,267L531,261L504,247Z" fill="rgb(166, 186, 79)" fill-opacity="0.62"/><path d="M-13,218L-12,209L30,209Z" fill="rgb(195, 165, 157)" fill-opacity="0.86"/><path d="M416,168L484,150L501,165Z" fill="rgb(66, 79, 105)" fill-opacity="0.60"/><path d="M544,311L502,288L506,256Z" fill="rgb(0, 49, 0)" fill-opacity="0.49"/><path d="M437,213L505,204L538,224Z" fill="rgb(252, 223, 255)" fill-opacity="0.37"/><path d="M42,224L73,195L76,210Z" fill="rgb(144, 66, 0)" fill-opacity="0.65"/><path d="M367,303L357,326L367,288Z" fill="rgb(66, 37, 14)" fill-opacity="0.53"/><path d="M294,242L213,237L215,220Z" fill="rgb(75, 0, 0)" fill-opacity="0.58"/><path d="M397,89L401,95L399,119Z" fill="rgb(0, 0, 0)" fill-opacity="0.47"/><path d="M280,39L285,61L328,31Z" fill="rgb(214, 216, 217)" fill-opacity="0.75"/><path d="M289,233L273,255L273,222Z" fill="rgb(50, 47, 49)" fill-opacity="0.57"/><path d="M351,267L366,283L342,284Z" fill="rgb(158, 69, 0)" fill-opacity="0.49"/><path d="M114,285L214,297L208,278Z" fill="rgb(167, 157, 151)" fill-opacity="0.70"/><path d="M345,273L283,267L346,242Z" fill="rgb(240, 247, 255)" fill-opacity="0.30"/><path d="M85,288L139,247L138,269Z" fill="rgb(255, 210, 0)" fill-opacity="0.74"/><path d="M497,192L494,266L560,151Z" fill="rgb(243, 254, 251)" fill-opacity="0.53"/><path d="M535,262L486,265L459,242Z" fill="rgb(173, 191, 127)" fill-opacity="0.56"/><path d="M518,53L480,60L416,53Z" fill="rgb(97, 90, 106)" fill-opacity="0.56"/><path d="M376,279L362,242L358,306Z" fill="rgb(159, 102, 70)" fill-opacity="0.43"/><path d="M237,117L255,111L208,199Z" fill="rgb(205, 194, 185)" fill-opacity="0.49"/><path d="M373,195L359,250L341,197Z" fill="rgb(246, 251, 254)" fill-opacity="0.44"/><path d="M283,102L327,109L278,127Z" fill="rgb(31, 29, 37)" fill-opacity="0.42"/><path d="M267,71L279,92L284,74Z" fill="rgb(249, 207, 190)" fill-opacity="0.54"/><path d="M239,82L246,56L278,42Z" fill="rgb(9, 5, 3)" fill-opacity="0.58"/><path d="M478,273L502,288L477,303Z" fill="rgb(142, 186, 130)" fill-opacity="0.57"/><path d="M278,210L292,227L296,205Z" fill="rgb(138, 31, 29)" fill-opacity="0.52"/><path d="M249,190L252,185L254,192Z" fill="rgb(0, 0, 0)" fill-opacity="0.52"/><path d="M262,279L282,229L299,276Z" fill="rgb(10, 16, 20)" fill-opacity="0.45"/><path d="M341,150L327,95L363,124Z" fill="rgb(0, 0, 9)" fill-opacity="0.24"/><path d="M485,104L481,74L481,122Z" fill="rgb(14, 35, 65)" fill-opacity="0.49"/><path d="M364,151L382,221L396,76Z" fill="rgb(213, 216, 220)" fill-opacity="0.92"/><path d="M31,185L103,178L42,177Z" fill="rgb(182, 195, 230)" fill-opacity="0.54"/><path d="M428,203L398,190L485,202Z" fill="rgb(225, 230, 234)" fill-opacity="0.71"/><path d="M209,142L214,193L180,150Z" fill="rgb(255, 139, 66)" fill-opacity="0.29"/><path d="M-2,100L32,100L-8,113Z" fill="rgb(18, 59, 112)" fill-opacity="0.24"/><path d="M355,171L337,148L338,223Z" fill="rgb(218, 199, 187)" fill-opacity="0.52"/><path d="M496,205L484,200L496,250Z" fill="rgb(42, 40, 75)" fill-opacity="0.52"/><path d="M417,249L457,240L450,238Z" fill="rgb(228, 236, 236)" fill-opacity="0.61"/><path d="M76,283L78,298L90,288Z" fill="rgb(14, 0, 0)" fill-opacity="0.53"/><path d="M238,80L218,110L256,111Z" fill="rgb(3, 0, 0)" fill-opacity="0.52"/><path d="M80,247L105,223L124,238Z" fill="rgb(255, 212, 0)" fill-opacity="0.61"/><path d="M358,195L366,178L349,183Z" fill="rgb(116, 96, 97)" fill-opacity="0.57"/><path d="M174,158L152,185L162,143Z" fill="rgb(194, 197, 202)" fill-opacity="0.48"/><path d="M337,181L317,181L334,196Z" fill="rgb(14, 2, 0)" fill-opacity="0.54"/><path d="M442,328L432,344L376,329Z" fill="rgb(122, 130, 144)" fill-opacity="0.47"/><path d="M209,225L199,211L219,212Z" fill="rgb(156, 146, 155)" fill-opacity="0.60"/><path d="M260,118L268,104L276,128Z" fill="rgb(51, 16, 9)" fill-opacity="0.41"/><path d="M1,150L-47,86L63,144Z" fill="rgb(89, 98, 111)" fill-opacity="0.93"/><path d="M266,182L270,227L287,224Z" fill="rgb(247, 238, 196)" fill-opacity="0.44"/><path d="M129,226L172,225L141,263Z" fill="rgb(23, 25, 37)" fill-opacity="0.60"/><path d="M443,202L442,212L414,206Z" fill="rgb(0, 5, 45)" fill-opacity="0.43"/><path d="M485,114L495,120L487,52Z" fill="rgb(233, 242, 248)" fill-opacity="0.72"/><path d="M383,208L422,209L403,228Z" fill="rgb(228, 180, 138)" fill-opacity="0.77"/><path d="M429,116L433,115L416,115Z" fill="rgb(0, 0, 1)" fill-opacity="0.50"/><path d="M32,176L50,163L66,175Z" fill="rgb(120, 4, 0)" fill-opacity="0.58"/><path d="M51,235L32,231L26,302Z" fill="rgb(255, 206, 0)" fill-opacity="0.61"/><path d="M125,173L116,194L118,148Z" fill="rgb(168, 173, 177)" fill-opacity="0.45"/><path d="M281,46L290,87L261,45Z" fill="rgb(43, 35, 39)" fill-opacity="0.56"/><path d="M308,137L342,168L316,173Z" fill="rgb(59, 55, 55)" fill-opacity="0.59"/><path d="M51,262L84,235L80,279Z" fill="rgb(255, 204, 0)" fill-opacity="0.54"/><path d="M509,118L497,125L531,125Z" fill="rgb(46, 67, 92)" fill-opacity="0.56"/><path d="M331,174L327,184L318,170Z" fill="rgb(253, 195, 151)" fill-opacity="0.41"/><path d="M396,113L401,111L398,132Z" fill="rgb(0, 0, 0)" fill-opacity="0.51"/><path d="M110,148L122,144L98,146Z" fill="rgb(172, 179, 178)" fill-opacity="0.48"/><path d="M548,172L518,133L485,177Z" fill="rgb(239, 244, 248)" fill-opacity="0.63"/><path d="M216,206L204,203L203,218Z" fill="rgb(204, 94, 19)" fill-opacity="0.44"/><path d="M401,70L434,75L399,57Z" fill="rgb(224, 233, 234)" fill-opacity="0.52"/><path d="M367,314L381,327L354,311Z" fill="rgb(27, 13, 4)" fill-opacity="0.49"/><path d="M399,51L397,130L400,106Z" fill="rgb(25, 29, 35)" fill-opacity="0.73"/><path d="M6,264L21,299L-7,291Z" fill="rgb(173, 109, 0)" fill-opacity="0.52"/><path d="M214,210L222,233L252,212Z" fill="rgb(159, 17, 0)" fill-opacity="0.68"/><path d="M87,141L107,146L77,147Z" fill="rgb(244, 248, 245)" fill-opacity="0.37"/><path d="M355,232L302,234L345,241Z" fill="rgb(246, 187, 111)" fill-opacity="0.61"/><path d="M127,293L129,288L153,292Z" fill="rgb(49, 24, 18)" fill-opacity="0.53"/><path d="M439,127L462,129L443,131Z" fill="rgb(77, 85, 97)" fill-opacity="0.70"/><path d="M454,171L413,168L474,168Z" fill="rgb(255, 255, 255)" fill-opacity="0.51"/><path d="M70,151L78,173L108,179Z" fill="rgb(36, 51, 51)" fill-opacity="0.55"/><path d="M-7,184L-32,210L18,194Z" fill="rgb(172, 197, 250)" fill-opacity="0.45"/><path d="M441,235L446,211L452,239Z" fill="rgb(28, 16, 47)" fill-opacity="0.51"/><path d="M292,209L262,200L229,214Z" fill="rgb(235, 137, 15)" fill-opacity="0.42"/><path d="M264,162L304,125L317,178Z" fill="rgb(225, 231, 237)" fill-opacity="0.54"/><path d="M110,226L102,214L123,231Z" fill="rgb(61, 49, 46)" fill-opacity="0.57"/><path d="M282,199L277,206L291,227Z" fill="rgb(163, 45, 0)" fill-opacity="0.48"/><path d="M443,272L454,242L495,278Z" fill="rgb(16, 42, 0)" fill-opacity="0.74"/><path d="M397,174L425,181L385,181Z" fill="rgb(103, 89, 87)" fill-opacity="0.54"/><path d="M14,178L14,134L20,186Z" fill="rgb(0, 2, 20)" fill-opacity="0.56"/><path d="M40,267L50,270L60,244Z" fill="rgb(109, 5, 0)" fill-opacity="0.50"/><path d="M312,259L295,252L300,285Z" fill="rgb(201, 166, 152)" fill-opacity="0.55"/><path d="M453,181L463,177L427,176Z" fill="rgb(40, 31, 41)" fill-opacity="0.40"/><path d="M377,193L364,93L339,167Z" fill="rgb(163, 162, 175)" fill-opacity="0.50"/><path d="M68,220L78,199L67,183Z" fill="rgb(199, 119, 0)" fill-opacity="0.56"/><path d="M625,-7L383,2L495,55Z" fill="rgb(244, 250, 255)" fill-opacity="0.64"/><path d="M28,207L30,182L38,219Z" fill="rgb(11, 12, 10)" fill-opacity="0.62"/><path d="M247,254L241,250L277,245Z" fill="rgb(131, 130, 147)" fill-opacity="0.47"/><path d="M163,158L193,143L207,111Z" fill="rgb(215, 220, 223)" fill-opacity="0.56"/><path d="M264,326L266,330L249,329Z" fill="rgb(112, 91, 92)" fill-opacity="0.50"/><path d="M74,314L89,294L126,289Z" fill="rgb(217, 227, 229)" fill-opacity="0.83"/><path d="M424,341L525,347L497,312Z" fill="rgb(181, 189, 197)" fill-opacity="0.55"/><path d="M-65,314L78,323L48,328Z" fill="rgb(1, 9, 24)" fill-opacity="0.52"/><path d="M3,255L-36,306L2,224Z" fill="rgb(11, 78, 139)" fill-opacity="0.37"/><path d="M148,194L149,225L109,226Z" fill="rgb(210, 222, 240)" fill-opacity="0.43"/><path d="M215,279L255,286L166,287Z" fill="rgb(156, 138, 131)" fill-opacity="0.55"/><path d="M200,232L169,196L203,193Z" fill="rgb(222, 255, 255)" fill-opacity="0.19"/><path d="M468,179L461,176L514,176Z" fill="rgb(98, 92, 101)" fill-opacity="0.68"/><path d="M60,165L73,171L80,165Z" fill="rgb(204, 201, 223)" fill-opacity="0.50"/><path d="M122,244L142,225L146,253Z" fill="rgb(24, 26, 30)" fill-opacity="0.69"/><path d="M35,162L37,155L31,161Z" fill="rgb(71, 42, 0)" fill-opacity="0.55"/><path d="M393,49L427,61L381,58Z" fill="rgb(113, 102, 100)" fill-opacity="0.32"/><path d="M463,333L442,305L449,340Z" fill="rgb(136, 147, 154)" fill-opacity="0.51"/><path d="M85,185L31,185L36,196Z" fill="rgb(39, 21, 23)" fill-opacity="0.51"/><path d="M74,214L57,217L100,294Z" fill="rgb(255, 214, 13)" fill-opacity="0.69"/><path d="M369,216L393,219L360,262Z" fill="rgb(158, 44, 0)" fill-opacity="0.16"/><path d="M184,181L199,192L201,175Z" fill="rgb(59, 67, 71)" fill-opacity="0.47"/><path d="M200,293L181,297L290,293Z" fill="rgb(251, 245, 230)" fill-opacity="0.54"/><path d="M457,127L403,128L400,111Z" fill="rgb(235, 246, 251)" fill-opacity="0.47"/><path d="M318,67L374,-146L370,139Z" fill="rgb(178, 176, 179)" fill-opacity="0.33"/><path d="M8,243L-1,244L-1,263Z" fill="rgb(44, 0, 0)" fill-opacity="0.44"/><path d="M45,218L41,213L43,229Z" fill="rgb(185, 168, 158)" fill-opacity="0.50"/><path d="M314,297L294,297L322,331Z" fill="rgb(120, 54, 1)" fill-opacity="0.19"/><path d="M2,187L8,168L12,187Z" fill="rgb(0, 6, 7)" fill-opacity="0.48"/><path d="M269,107L262,132L252,148Z" fill="rgb(108, 47, 15)" fill-opacity="0.49"/><path d="M271,102L288,116L292,80Z" fill="rgb(0, 0, 0)" fill-opacity="0.48"/><path d="M439,176L470,176L416,180Z" fill="rgb(77, 69, 73)" fill-opacity="0.51"/><path d="M151,280L132,279L167,270Z" fill="rgb(0, 9, 22)" fill-opacity="0.52"/><path d="M413,136L411,142L381,136Z" fill="rgb(138, 132, 129)" fill-opacity="0.49"/><path d="M414,64L400,64L400,116Z" fill="rgb(228, 236, 240)" fill-opacity="0.69"/>
  <!-- </svg> -->
  </g>
</svg>
