<svg xmlns="http://www.w3.org/2000/svg" xmlns:svg="http://www.w3.org/2000/svg" version="1.1" viewBox="0 0 1000 400" xml:space="preserve">
  <path fill="#ee7f13" d="m324.92 107.38-20.74 20.95C288.32 113.7 271.14 102.77 252.6 95.55 234.06 88.33 216.06 85 198.58 85.56c-21.57 0.7-41.94 6.68-61.12 17.98-19.18 11.29-33.88 26.16-44.08 44.59-10.21 18.45-15.04 35.85-14.52 52.22 0.67 20.83 6.87 40.39 18.63 58.68 11.76 18.3 27.62 32.43 47.62 42.4 19.99 9.97 41.63 14.57 64.94 13.82 28.26-0.91 51.96-9.67 71.09-26.3 19.13-16.62 30.15-37.69 33.06-63.23l-87.95 2.83-0.86-26.59 118.63-3.8c1.13 42.65-10.41 76.9-34.57 102.74-24.18 25.84-57.33 39.44-99.49 40.79-50.82 1.63-91.68-14.43-122.54-48.18-23.79-26.04-36.25-56.6-37.37-91.68-0.84-26.16 4.94-49.67 17.37-70.54 12.42-20.87 29.9-38.06 52.42-51.57 22.53-13.5 48.22-20.72 77.12-21.65 23.31-0.75 45.38 2.8 66.23 10.62 20.87 7.82 41.45 20.72 61.75 38.69"/>
  <path fill="#ee7f13" d="m528.94 86.04c-20.35 0-39.65 5.3-57.95 15.9-18.3 10.61-32.52 24.93-42.69 42.97-10.17 18.04-15.26 38.11-15.26 60.19 0 32.74 11.32 59.29 33.96 79.62 22.64 20.35 49.95 30.51 81.95 30.51 21.34 0 41.11-5.21 59.34-15.63 18.23-10.42 32.43-24.59 42.6-42.52 10.17-17.92 15.26-35.69 15.26-53.3 0-21.83-5.09-41.61-15.26-59.35C620.72 126.72 606.39 112.55 587.92 101.94 569.43 91.35 549.78 86.04 528.94 86.04m-1.11-27.17c41.67 0 76.55 13.96 104.64 41.86 28.09 27.9 42.14 62.26 42.14 103.06 0 40.31-14.01 73.42-42.05 99.34-28.02 25.92-62.19 38.89-102.5 38.89-40.94 0-75.47-13.98-103.63-41.95-28.16-27.97-42.24-59.62-42.24-94.97 0-26.42 6.39-50.97 19.17-73.67C416.14 108.73 433.63 90.96 455.84 78.13 478.04 65.29 502.04 58.86 527.84 58.86"/>
  <path fill="#ee7f13" d="m804.37 86.04c-20.35 0-39.65 5.3-57.95 15.9-18.3 10.61-32.52 24.93-42.69 42.97-10.17 18.04-15.26 38.11-15.26 60.19 0 32.74 11.32 59.29 33.96 79.62 22.64 20.35 49.95 30.51 81.95 30.51 21.34 0 41.11-5.21 59.34-15.63 18.23-10.42 32.43-24.59 42.6-42.52 10.17-17.92 15.26-35.69 15.26-53.3 0-21.83-5.09-41.61-15.26-59.35C896.16 126.72 881.82 112.55 863.35 101.94 844.87 91.35 825.22 86.04 804.37 86.04m-1.11-27.17c41.67 0 76.55 13.96 104.64 41.86 28.09 27.9 42.14 62.26 42.14 103.06 0 40.31-14.01 73.42-42.05 99.34-28.02 25.92-62.19 38.89-102.5 38.89-40.94 0-75.47-13.98-103.63-41.95-28.16-27.97-42.24-59.62-42.24-94.97 0-26.42 6.39-50.97 19.17-73.67 12.77-22.69 30.26-40.47 52.47-53.3 22.2-12.83 46.2-19.26 72-19.26"/>
</svg>
